<?xml version="1.0" encoding="utf-8"?>
<!-- Generator: Adobe Illustrator 25.4.1, SVG Export Plug-In . SVG Version: 6.00 Build 0)  -->
<svg version="1.1" id="圖層_1" xmlns="http://www.w3.org/2000/svg" xmlns:xlink="http://www.w3.org/1999/xlink" x="0px" y="0px"
	 viewBox="0 0 5083 3061.4" style="enable-background:new 0 0 5083 3061.4;" xml:space="preserve">
<g>
	<path d="M206.9,1478c11.9,8.3,20.8,18.5,26.8,30.3l10.6,69.5l5.3,144.6l-16.1,83.9v23.2l-42.8,123.1l-25,53.6l-44.5,26.8
		c-6,9.6-9.6,18.5-10.6,26.8c-2.5,8.3-9.6,14.2-21.5,17.9L40.8,2051c-13.1-10.6-23.8-29.1-32.1-55.4c-8.3-26.1-10.6-48.3-7.1-66
		l28.6-78.6c29.8-30.9,52.9-72,69.5-123.1c15.4-51.1,26.1-98.6,32.1-142.8c1.2-20.2,1.8-44,1.8-71.3c0-26.1,12.4-44,37.4-53.6
		C183.1,1464.9,195,1470.9,206.9,1478z M540.6,1073c21.5,0,40.4,1.8,57.1,5.3c15.4,3.5,32.1,11.4,50,23.2l37.4,8.9l101.7,57.1
		c13.1,9.6,17.2,27.3,12.4,53.6l-21.5,12.4l-8.9,46.3l-7.1,14.2v99.9c-7.1,51.1-10.1,105.9-8.9,164.1c1.2,58.4,5.9,113,14.2,164.1
		l-5.3,189.1c5.9,7.1,9.6,16.7,10.6,28.6l1.8,32.1c3.5,22.5,3,51.8-1.8,87.5c-4.8,36.9-11.9,65.5-21.5,85.7
		c-8.3,11.9-13.7,23.8-16.1,35.7c-2.5,13.1-7.8,24.5-16.1,33.9l-21.5,25l-7.1,32.1c-3.5,9.6-10.1,18.5-19.7,26.8l-50,12.4
		c-10.6-13.1-19-29.1-25-48.3l-17.9-51.8c-7.1-21.5-18.5-42.2-33.9-62.4l-44.5-58.9c-15.4-20.2-38.7-42.2-69.5-66
		c-32.1-23.8-52.9-42.8-62.4-57.1v-30.3c9.6-4.8,18.5-5.9,26.8-3.5c8.3,2.5,17.2,3.5,26.8,3.5c11.9,11.9,27.9,23.8,48.3,35.7
		c19,13.1,35.1,20.2,48.3,21.5l5.3-12.4c0-2.3,3-3.5,8.9-3.5c7.1,9.6,18.5,19,33.9,28.6c14.2,9.6,25.5,14.2,33.9,14.2
		c14.2-25,22-61.9,23.2-110.7c0-48.8-3-88-8.9-117.8l-1.8-190.9l-23.2-214.1c2.3-39.2,3-74.3,1.8-105.2
		c-2.5-30.9-16.1-64.8-41-101.7c-16.7-9.6-30.9-19.7-42.8-30.3c-11.9-9.6-13.7-25.5-5.3-48.3L540.6,1073z M742.1,1342.5l-5.3-14.2
		v19.7L742.1,1342.5z M1093.6,1453l23.2,14.2l74.9,12.4l105.2,58.9l10.6,30.3l23.2,10.6l44.5,58.9c5.9,9.6,10.6,19,14.2,28.6
		c2.3,10.6,7.8,17.2,16.1,19.7l5.3-12.4l5.3,5.3c-9.6,13.1-10.6,26.8-3.5,41c5.9,14.2,7.1,28.6,3.5,42.8
		c-10.6,38.1-25.5,61.2-44.5,69.5c-19,8.3-47.5,11.4-85.7,8.9c-28.6-28.6-55.4-58.2-80.4-89.2l-76.6-96.3l-80.4-107
		c-15.4-11.9-32.1-26.8-50-44.5c-19-16.7-29.1-36.9-30.3-60.7l25-21.5L1093.6,1453z"/>
	<path d="M2384.1,830.3c9.6,3.5,17.2,8.3,23.2,14.2c4.8,6,10.1,11.4,16.1,16.1h14.2c9.6,3.5,17.9,7.8,25,12.4
		c7.1,4.8,13.7,10.1,19.7,16.1c3.5-5.9,7.1-10.6,10.6-14.2c2.3-2.3,7.1-3.5,14.2-3.5l12.4,12.4c7.1-3.5,17.9-4.1,32.1-1.8
		c13.1,2.5,23.8,4.8,32.1,7.1l14.2,16.1c-6,7.1-10.6,14.9-14.2,23.2c-4.8,8.3-8.9,17.2-12.4,26.8l7.1,5.3v78.6
		c-9.6,11.9-12.4,19.7-8.9,23.2c2.3,3.5,1.8,8.9-1.8,16.1c-3.5,8.3-8.3,14.9-14.2,19.7c-6,4.8-7.8,12.4-5.3,23.2
		c10.6,9.6,14.2,21.5,10.6,35.7l-10.6,37.4c-6,3.5-13.1,10.6-21.5,21.5l-17.9,23.2l16.1,30.3l-5.3,25c22.5,16.7,30.3,30.9,23.2,42.8
		c-8.3,11.9-11.9,25-10.6,39.2c7.1,13.1,18.5,19.7,33.9,19.7c15.4,0,27.9-0.5,37.4-1.8c9.6-5.9,23.2-8.9,41-8.9
		c17.9,1.2,32.1,0,42.8-3.5l16.1-28.6l117.8-5.3l10.6,10.6c2.3,2.5,1.8,6.6-1.8,12.4l-7.1,5.3c10.6,4.8,16.7,10.1,17.9,16.1
		c1.2,6,0.5,13.1-1.8,21.5L2793,1450l-16.1-1.8l-53.6,14.2l-73.1-1.8l-10.6-7.1l-8.9,14.2c-3.5,2.5-15.4,6.6-35.7,12.4
		c-21.5,7.1-35.1,12.4-41,16.1l-10.6,33.9l25,19.7l-14.2,30.3l5.3,23.2c-3.5,13.1-7.1,22-10.6,26.8c-3.5,6,0.5,12.4,12.4,19.7
		l23.2,12.4l121.3-25l283.7-32.1c29.8-1.2,52.3-5.9,67.8-14.2c14.2-7.1,37.4-6.6,69.5,1.8c15.4,4.8,29.8,8.3,42.8,10.6
		c13.1,3.5,26.1,10.1,39.2,19.7l41,44.5l7.1-3.5c13.1,6,22,15.4,26.8,28.6c3.5,14.2,4.1,26.8,1.8,37.4l-28.6,16.1l-1.8-17.9
		l-21.5,16.1l-14.2-8.9l-23.2,5.3l-99.9-12.4h-37.4l-16.1-7.1c-11.9,3.5-25,6-39.2,7.1c-15.4,2.5-30.3,2.5-44.5,0l-176.7-7.1
		l-64.2,14.2c-23.8,6-47,7.1-69.5,3.5l-5.3-8.9c-8.3,11.9-14.9,16.1-19.7,12.4c-6-2.3-14.2-1.8-25,1.8l-8.9,14.2
		c-6,3.5-10.1,3-12.4-1.8c-2.5-3.5-7.8,2.5-16.1,17.9c7.1,3.5,10.6,6.6,10.6,8.9c0,3.5-1.2,8.9-3.5,16.1
		c-9.6,9.6-13.7,21.5-12.4,35.7c1.2,14.2,0.5,26.8-1.8,37.4c8.3,9.6,11.4,18.5,8.9,26.8c-3.5,8.3-6,17.2-7.1,26.8l-1.8,23.2
		l8.9,62.4l-7.1,60.7c0,10.6,1.2,20.2,3.5,28.6c1.2,8.3,3.5,15.4,7.1,21.5l-10.6,46.3l12.4,53.6l-7.1,30.3l1.8,46.3l-7.1,30.3
		l7.1,16.1l-8.9,30.3l-8.9,91l-14.2,30.3l-5.3,35.7l-23.2,8.9c-2.5,4.8-3,10.1-1.8,16.1c1.2,5.9-6,3.5-21.5-7.1
		c-9.6-16.7-14.2-36.4-14.2-58.9c-1.2-21.5-3-42.2-5.3-62.4c-8.3-52.3-13.1-105.9-14.2-160.6c-1.2-53.6-1.8-107-1.8-160.6l-7.1-83.9
		l5.3-183.8l-12.4-21.5c9.6,2.5,15.4,0,17.9-7.1c1.2-5.9,0-12.4-3.5-19.7l-26.8-10.6c-4.8,4.8-11.4,7.8-19.7,8.9l-26.8,3.5
		l-130.2,33.9l-114.3,35.7l-21.5,3.5c-3.5,0-11.9,1.8-25,5.3l-16.1-3.5l-26.8,17.9l-23.2-5.3l-21.5,19.7l-83.9,17.9l-26.8,23.2
		h-16.1c-11.9,9.6-26.3,17.2-42.8,23.2c-16.7,6-32.6,4.8-48.3-3.5l-10.6-21.5l-53.6-21.5l-12.4-23.2l-28.6-25
		c-7.1-4.8-15.4-14.9-25-30.3l-17.9-16.1l42.8-8.9l7.1,7.1c10.6-8.3,22-10.6,33.9-7.1c10.6,4.8,22.5,6,35.7,3.5l121.3-8.9l14.2-12.4
		l21.5,7.1c5.9-1.2,10.6-4.8,14.2-10.6c2.3-4.8,8.9-6.6,19.7-5.3l10.6,16.1c5.9-14.2,13.1-20.2,21.5-17.9c8.3,2.5,16.1,1.2,23.2-3.5
		c14.2-7.1,33.9-13.1,58.9-17.9l99.9-17.9l37.4-17.9l85.7-8.9l91-30.3l41-8.9c16.7-2.3,27.3-7.1,32.1-14.2
		c7.1-15.4,8.9-39.2,5.3-71.3c-3.5-30.9-6-55.9-7.1-74.9c-9.6-3.5-30.9-1.8-64.2,5.3s-57.7,13.1-73.1,17.9l-53.6,12.4l-23.2,16.1
		c-14.2,8.3-32.6,11.4-55.4,8.9c-23.8-2.3-43.5-7.8-58.9-16.1l-30.3-32.1l-21.5,8.9l-35.7-30.3c8.3-4.8,18.5-7.1,30.3-7.1l28.6,3.5
		l5.3,17.9l28.6-46.3l14.2,5.3l16.1-8.9l91-5.3l114.3-28.6l16.1,1.8l46.3-19.7h14.2c14.2-9.6,19.7-22,16.1-37.4
		c-4.8-14.2-8.3-27.3-10.6-39.2l3.5-37.4c-2.5-16.7-3.5-33.4-3.5-50v-50l-12.4-53.6l5.3-46.3l-42.8-157c-4.8-4.8-7.8-12.4-8.9-23.2
		c-2.5-9.6-5.3-19-8.9-28.6l-35.7-58.9l19.7-14.2L2384.1,830.3z M1822,1943.7l-16.1-12.4l3.5,16.1L1822,1943.7z M2077.1,1131.9h37.4
		l19.7,12.4l32.1,1.8c14.2,2.5,24.3,5.3,30.3,8.9l7.1,14.2l30.3-1.8c10.6,2.5,20.2,6.6,28.6,12.4c7.1,7.1,22.5,6,46.3-3.5
		c7.1-8.3,16.1-13.7,26.8-16.1c10.6-2.3,20.8-5.3,30.3-8.9c4.8,6,9.6,9.6,14.2,10.6c4.8,2.5,7.8,6.6,8.9,12.4l-42.8,28.6l-23.2,37.4
		l-14.2,3.5l-5.3,21.5l-16.1,10.6c-8.3,10.6-16.7,18.5-25,23.2c-8.3,4.8-19.7,2.5-33.9-7.1l-133.8-89.2l-23.2-62.4
		c-2.5,1.2-7.1,1.2-14.2,0c-8.3,0-7.8-8.3,1.8-25L2077.1,1131.9z M2103.9,1158.7l-5.3-8.9v14.2L2103.9,1158.7z M2107.5,1536.9
		l-5.3,5.3l1.8-21.5L2107.5,1536.9z M2143.1,1156.9l-23.2-7.1l5.3,8.9L2143.1,1156.9z M2501.9,2536.1l-12.4-10.6l7.1,12.4
		L2501.9,2536.1z M2523.1,899.8l-14.2-12.4l5.3,12.4H2523.1z M2514.3,2520.1l-5.3-8.9v14.2L2514.3,2520.1z M2526.9,924.8l-7.1-10.6
		v12.4L2526.9,924.8z M2560.8,960.5l5.3-1.8l-28.6-28.6c-1.2,7.1,1.8,12.4,8.9,16.1C2552.4,949.9,2557.2,954.6,2560.8,960.5z
		 M2559,899.8v-12.4l-3.5,14.2l-5.3-14.2l3.5,14.2L2559,899.8z M2560.8,1012.3l-1.8-10.6l-3.5,12.4L2560.8,1012.3z M2787.3,967.8
		l33.9,23.2l14.2-1.8c17.9,6,35.1,13.7,51.8,23.2c15.4,10.6,27.9,22.5,37.4,35.7c9.6,8.3,20.2,13.7,32.1,16.1
		c10.6,3.5,16.1,11.4,16.1,23.2l-69.5,26.8c-22.5,8.3-47,16.7-73.1,25l-57.1,33.9H2757l-30.3,21.5l-46.3,14.2l-10.6,12.4l-44.5,7.1
		c-10.6,4.8-19.7,10.6-26.8,17.9c-7.1,7.1-17.2,12.4-30.3,16.1l-8.9-17.9l35.7-17.9l57.1-62.4l39.2-30.3l7.1-23.2l23.2-32.1
		c3.5-5.9,5.3-21.5,5.3-46.3l-21.5-23.2c-7.1-5.9-13.1-15.4-17.9-28.6l39.2-17.9L2787.3,967.8z M2567.9,924.8l17.9-10.6l-8.9-19.7
		l-14.2,12.4L2567.9,924.8z M3254.8,1681.5l-14.2-12.4l8.9,16.1L3254.8,1681.5z"/>
	<path d="M4484.2,1001.7c23.8-1.2,42.8-1.2,57.1,0c14.2,2.5,26.1,16.7,35.7,42.8v48.3l-46.3,28.6l-76.6,17.9l-23.2,12.4l-30.3-1.8
		l-23.2,8.9c-3.5-3.5-8.9-5.9-16.1-7.1h-23.2c-4.8,7.1-11.9,11.9-21.5,14.2l-30.3,7.1l-16.1,19.7l-53.6,5.3
		c-7.1-5.9-16.7-7.1-28.6-3.5c-13.1,4.8-25.5,8.3-37.4,10.6l-8.9,12.4l25,26.8c7.1,9.6,7.1,21.5,0,35.7
		c-13.1,9.6-17.9,15.4-14.2,17.9c3.5,2.5,4.1,8.9,1.8,19.7c-2.5,8.3-6.6,12.4-12.4,12.4c-6,1.2-9.6,7.1-10.6,17.9l25,17.9
		l-10.6,39.2v74.9l10.6,10.6l21.5-10.6l1.8,39.2l42.8,1.8c16.7-11.9,37.4-20.2,62.4-25l67.8-10.6c25-3.5,49.3-11.4,73.1-23.2
		c22.5-10.6,44-21.5,64.2-32.1l51.8,5.3c16.7,13.1,35.1,18.5,55.4,16.1c19-1.2,38.1,6,57.1,21.5c7.1,7.1,12.4,13.1,16.1,17.9
		c3.5,4.8,5.9,10.6,7.1,17.9l-5.3,30.3l-30.3,33.9l-107,10.6l-39.2,35.7l-37.4-8.9l-35.7,8.9c-9.6-13.1-22-19.7-37.4-19.7
		c-15.4,0-30.3,1.2-44.5,3.5l-46.3-1.8l-23.2,8.9H4210l-71.3,17.9v33.9l58.9,82.1l1.8,14.2l116,155.2l14.2,39.2l83.9,62.4l16.1,32.1
		l7.1-3.5l21.5,28.6l116,83.9c36.9,17.9,74.3,32.6,112.5,44.5c36.9,13.1,73.8,25.5,110.7,37.4l221.2,5.3l25,32.1
		c4.8-2.5,10.6-3.5,17.9-3.5c5.9,0,11.9,0.5,17.9,1.8l3.5,8.9l-17.9,3.5c-2.5-4.8-6-7.8-10.6-8.9c-6,0-12.4-0.5-19.7-1.8
		c-7.1,20.2-20.8,33.4-41,39.2c-20.2,5.9-41,10.1-62.4,12.4l-67.8,17.9l-146.4,7.1l-30.3,10.6c-17.9,3.5-38.7,7.1-62.4,10.6
		c-23.8,3.5-43.5,0.5-58.9-8.9l-89.2-82.1l-77.7-101.3l-30.3-23.2l-10.6-21.5l-42.8-44.5l-164.1-244.5c-3.5-8.3-7.1-18.5-10.6-30.3
		c-4.8-11.9-13.1-20.2-25-25l-14.2,67.8l-48.3,116l-32.1,98.1c-14.2,25-30.9,52.3-50,82.1c-19,29.8-39.2,53.6-60.7,71.3l-142.8,96.3
		l-53.6,21.5l-32.1-3.5l-21.5,16.1l-16.1-3.5l-46.3,14.2h-67.8c-22.5,2.3-43.5,7.8-62.4,16.1c-20.2,8.3-42.8,8.9-67.8,1.8
		c-6-7.1-8.9-14.9-8.9-23.2c-1.2-8.3,0-17.2,3.5-26.8c11.9-8.3,25.5-13.1,41-14.2c15.4,0,29.8-2.5,42.8-7.1l107-35.7l76.6-35.7
		l23.2-21.5l67.8-41l35.7-37.4l39.2-30.3c41.7-58.2,78.6-112.5,110.7-162.3c32.1-48.8,54.6-110.7,67.8-185.6l16.1-57.1
		c4.8-20.2,5.3-41,1.8-62.4c-6-5.9-12.4-10.1-19.7-12.4c-8.3-1.2-17.2-1.2-26.8,0c-9.6,15.4-19.7,25-30.3,28.6
		c-11.9,3.5-27.3,6-46.3,7.1l-23.2,10.6c-22.5,4.8-45.2,8.9-67.8,12.4c-22.5,4.8-46.3,4.3-71.3-1.8c-4.8-8.3-10.6-12.4-17.9-12.4
		c-8.3,1.2-16.7,0-25-3.5c-25-8.3-50.6-15.4-76.6-21.5c-27.3-4.8-45.2-23.2-53.6-55.4l7.1-7.1l23.2,5.3h46.3l14.2-8.9l16.1,8.9
		l14.2-8.9l39.2,3.5l83.9-16.1l23.2,5.3c19-5.9,39.2-11.4,60.7-16.1c21.5-3.5,41.7-7.8,60.7-12.4l53.6-14.2h30.3l3.5-30.3
		c5.9-27.3,8.3-43.5,7.1-48.3c-2.5-3.5-8.9-18.5-19.7-44.5c-2.5-8.3,0-14.2,7.1-17.9c7.1-2.3,11.4-8.3,12.4-17.9l-1.8-78.6
		c-11.9-14.2-18.5-28.6-19.7-42.8c-2.5-14.2-13.1-27.3-32.1-39.2c-21.5-9.6-44-15.4-67.8-17.9c-23.8-2.3-47-7.1-69.5-14.2
		l-42.8-35.7l-19.7-5.3c-6-1.2-10.6-7.1-14.2-17.9l130.2-7.1l16.1-8.9h74.9l116-32.1l53.6-5.3l53.6-25l228.3-51.8L4484.2,1001.7z"/>
</g>
<g>
	<path d="M887.6,2947.1c-3.5,10.8-5.3,23.1-5.3,36.5s1.8,25.7,5.3,36.7c3.5,10.8,10.1,23.1,19.5,36.7c0.2,0.2,0.2,0.4,0.2,0.5
		c0,0.4-0.2,0.5-0.5,0.7l-3.2,2.5c-0.2,0.2-0.4,0.4-0.7,0.4c-0.2,0-0.5-0.2-0.7-0.4c-22.2-22-33.2-47.9-33.2-77.4
		c0-29.5,11-55.2,33.2-77.4c0.2-0.2,0.4-0.4,0.7-0.4c0.2,0,0.5,0.2,0.9,0.4l3.2,2.7c0.2,0.2,0.4,0.4,0.4,0.7c0,0.2,0,0.5-0.2,0.7
		C897.7,2924.1,891.1,2936.3,887.6,2947.1z"/>
	<path d="M845.4,2947.1c-3.5,10.8-5.3,23.1-5.3,36.5s1.8,25.7,5.3,36.7c3.5,10.8,10.1,23.1,19.5,36.7c0.2,0.2,0.2,0.4,0.2,0.5
		c0,0.4-0.2,0.5-0.5,0.7l-3.2,2.5c-0.2,0.2-0.4,0.4-0.7,0.4c-0.2,0-0.5-0.2-0.7-0.4c-22.2-22-33.2-47.9-33.2-77.4
		c0-29.5,11-55.2,33.2-77.4c0.2-0.2,0.4-0.4,0.7-0.4c0.2,0,0.5,0.2,0.9,0.4l3.2,2.7c0.2,0.2,0.4,0.4,0.4,0.7c0,0.2,0,0.5-0.2,0.7
		C855.5,2924.1,848.9,2936.3,845.4,2947.1z"/>
	<path d="M1380.6,2958.9c-5.9,9-12.2,16.7-18.8,22.9c-0.4,0.4-0.7,0.5-0.9,0.5s-0.5,0-0.7-0.2c-1.4-1.1-2.3-1.6-2.5-1.8
		s-0.2-0.4-0.2-0.5c0-0.2,0-0.5,0.2-0.7c6.7-9.2,13.3-20.6,19.5-33.9c6.2-13.5,11.2-27.1,14.7-41.2c0.2-0.2,0.2-0.4,0.4-0.5
		c0.2-0.2,0.4-0.2,0.5-0.2c0.2,0,0.4,0,0.5,0.2l9.8,5c0.4,0.2,0.5,0.5,0.5,0.9c0,0.2,0,0.2,0,0.4l-11.5,35.7v91.2
		c0,0.4-0.2,0.9-0.7,1.2c-0.4,0.4-1.4,0.9-2.7,1.6c-1.8,1.1-3.5,1.4-5.5,1.4h-1.8c-0.4,0-0.5-0.2-0.7-0.4c-0.2-0.2-0.4-0.4-0.4-0.7
		v-80.9H1380.6z M1495.2,2940.9c0.4,0,0.5,0.2,0.7,0.4c0.2,0.2,0.4,0.4,0.4,0.7v4.3c0,0.4-0.2,0.5-0.4,0.7c-0.2,0.2-0.4,0.4-0.7,0.4
		h-41.3c5.3,16.1,14.4,30.7,27.3,43.6c5.7,5.7,11.5,10.5,17.7,14.4c0.4,0.2,0.4,0.4,0.4,0.7s-0.2,0.7-0.4,1.4
		c-0.2,0.7-0.4,1.1-0.4,1.2c-0.2,0.2-0.2,0.2-0.4,0.4c-1.8,0.5-3.4,1.6-4.6,2.8c-1.2,1.2-2.1,3-2.7,5.3c-0.2,0.2-0.2,0.4-0.4,0.5
		c-0.2,0.2-0.4,0.2-0.5,0.2c-0.2,0-0.5-0.2-0.7-0.4c-9.2-7.5-17.4-17-24.5-28.9c-5.9-10.1-10.6-20.8-14.2-31.9v79.1
		c0,1.2-1.1,2.3-3.2,3.4c-2.8,1.1-4.6,1.4-5.5,1.4h-0.2h-1.8c-0.4,0-0.5-0.2-0.7-0.4c-0.2-0.2-0.4-0.4-0.4-0.7v-74.2
		c-9.8,22.2-24,40.4-42.8,54.6c-0.2,0.2-0.4,0.2-0.5,0.2s-0.4-0.2-0.7-0.4l-2.1-2c-0.2-0.4-0.4-0.5-0.4-0.7c0-0.2,0.2-0.5,0.5-0.9
		s0.7-0.9,1.2-1.4c17.6-17.6,30.3-40.1,38.1-67.6h-32.1c-0.4,0-0.5,0-0.7-0.2c-0.2-0.2-0.4-0.4-0.4-0.5c-0.7-3-1.2-4.6-1.2-4.8
		c0-0.2,0.2-0.4,0.4-0.5c0.2-0.2,0.5-0.4,0.7-0.4h39.7v-32.5c0-0.4,0.2-0.5,0.4-0.7c0.2-0.2,0.4-0.4,0.7-0.4h9.6
		c0.4,0,0.5,0.2,0.7,0.4c0.2,0.2,0.4,0.4,0.4,0.7v32.5H1495.2z"/>
	<path d="M2000.5,2962.4c-0.4,0-0.5-0.2-0.7-0.4c-0.2-0.2-0.4-0.4-0.4-0.7v-6.2h-28.6v80.9c0,1.2-0.9,2.3-2.7,3.4
		c-1.8,1.1-3.9,1.6-6,1.6h-1.8c-0.4,0-0.5-0.2-0.7-0.4c-0.2-0.2-0.4-0.4-0.4-0.7v-125.8c0-0.4,0.2-0.5,0.4-0.7
		c0.2-0.2,0.5-0.4,0.7-0.4h49.3c0.4,0,0.5,0.2,0.7,0.4c0.2,0.2,0.4,0.4,0.4,0.7v44.2c0,0.4-0.2,0.9-0.7,1.2
		c-0.4,0.4-1.6,1.1-3.2,1.8c-1.8,0.7-3.4,1.1-5,1.1L2000.5,2962.4L2000.5,2962.4z M1999.6,2930.6v-11.2H1971v11.2H1999.6z
		 M1971,2937v11.9h28.6V2937H1971z M2044.7,2970v51.1c0,4.6-1.1,7.8-3,9.8c-2,2-5.9,3.4-11.4,3.9c-0.2,0-0.2,0-0.4,0
		c-0.2,0-0.4-0.2-0.5-0.4c-0.2-0.2-0.4-0.4-0.4-0.5c-0.4-2.7-1.1-4.6-2.3-5.7c-2.1-1.4-5.5-2.5-10.1-3c-0.2,0-0.4-0.2-0.5-0.4
		c-0.2-0.2-0.4-0.5-0.4-0.7v-2.3c0-0.4,0.2-0.5,0.4-0.7c0.2-0.2,0.4-0.4,0.5-0.4s2.1,0.2,6.2,0.4c3.9,0.4,6.6,0.5,8,0.5
		c1.4,0,2.3-0.2,2.5-0.4c0.2-0.2,0.4-0.7,0.4-1.4v-11.4h-30c-2.5,11.2-8,19.9-16.7,25.9c-0.2,0.2-0.4,0.2-0.7,0.2
		c-0.2,0-0.5-0.2-0.7-0.4l-1.8-1.8c-0.2-0.2-0.4-0.4-0.4-0.7s0.2-0.5,0.4-0.7c4.3-5.1,7.1-11,8.5-17.4c1.4-6.4,2-14,2-22.9v-21.1
		c0-0.4,0.2-0.5,0.4-0.7c0.2-0.2,0.4-0.4,0.7-0.4h48.3c0.4,0,0.5,0.2,0.7,0.4C2044.5,2969.5,2044.7,2969.7,2044.7,2970z
		 M2033.7,3002.3v-10.6h-28.6c0,3.9-0.2,7.5-0.4,10.6H2033.7z M2033.7,2985.3V2975h-28.6v10.3H2033.7z M2079.8,2914.1v111.8
		c0,5.1-1.1,8.9-3.4,11c-2.3,2.3-6.4,3.5-12.4,4.3c-0.2,0-0.2,0-0.4,0s-0.4-0.2-0.5-0.4c-0.2-0.2-0.4-0.4-0.4-0.5
		c-0.5-3.2-1.2-5.5-2.3-6.7c-2.1-1.4-6-2.7-11.4-3.4c-0.2,0-0.4-0.2-0.5-0.4c-0.2-0.2-0.4-0.4-0.4-0.7v-2.3c0-0.4,0.2-0.5,0.4-0.7
		c0.2-0.2,0.4-0.4,0.5-0.4c0.2,0,2.5,0.2,7.1,0.5s7.6,0.5,9,0.5s2.3-0.2,2.7-0.4c0.2-0.2,0.4-0.9,0.4-1.8v-69.5h-29.8v2.7
		c0,0.5-0.2,1.1-0.7,1.4c-0.5,0.5-1.6,1.2-3.2,1.8c-1.6,0.5-3.2,0.9-5.1,0.9h-1.4c-0.4,0-0.5-0.2-0.7-0.4c-0.2-0.2-0.4-0.4-0.4-0.7
		V2914c0-0.4,0.2-0.5,0.4-0.7c0.2-0.2,0.4-0.4,0.7-0.4h51.1c0.4,0,0.5,0.2,0.7,0.4C2079.8,2913.6,2079.8,2913.8,2079.8,2914.1z
		 M2068.1,2930.6v-11.2h-29.8v11.2H2068.1z M2038.3,2937v11.9h29.8V2937H2038.3z"/>
	<path d="M2674.5,2994.2c0.4,0,0.5,0.2,0.7,0.4c0.2,0.2,0.4,0.4,0.4,0.7v4.4c0,0.4-0.2,0.5-0.4,0.7c-0.2,0.2-0.4,0.4-0.7,0.4h-17.7
		l5.1,6.7c0.2,0.2,0.2,0.4,0.2,0.5c0,0.4-0.2,0.7-0.5,0.9c-6.4,3.5-13.3,6.6-20.6,9c10.6,5.1,23.8,8.5,39.6,10.3
		c0.2,0,0.4,0.2,0.5,0.4c0.2,0.2,0.4,0.4,0.4,0.5s0,0.9-0.2,2c0,0.2-0.2,0.4-0.4,0.5c-0.2,0.2-0.4,0.4-0.5,0.4
		c-1.6,0.4-3.2,1.2-4.4,2.3c-1.2,1.1-2.1,3-2.7,5.5c-0.2,0.2-0.2,0.4-0.4,0.5c-0.2,0.2-0.4,0.2-0.5,0.2c-0.2,0-0.4,0-0.4,0
		c-20.9-4.6-36.5-12.1-46.7-22.4c-5-5-9-10.8-12.2-17.6h-18.6v24.3c12.8-4.6,19.9-7.3,21.3-7.8c1.4-0.5,2.3-0.9,2.5-0.9
		s0.4,0,0.5,0.2c0.2,0.2,0.2,0.4,0.2,0.4c0.7,1.6,1.1,2.7,1.1,2.8c0,0.4-0.2,0.5-0.4,0.7l-30,17.6c-1.1,2-2.3,3.2-3.9,4.1
		c-0.2,0.2-0.4,0.2-0.5,0.2c-0.4,0-0.5-0.2-0.7-0.5l-5.7-11.2c-0.2-0.2-0.2-0.4-0.2-0.5c0-0.4,0.2-0.5,0.5-0.7
		c1.8-1.1,3-1.8,3.5-2.3c0.4-0.5,0.5-1.2,0.5-2.1v-24h-15.4c-3.2,17.4-11.2,30.9-24.3,40.4c-0.2,0.2-0.4,0.2-0.7,0.2
		c-0.2,0-0.5-0.2-0.7-0.4l-1.6-2c-0.2-0.4-0.4-0.5-0.4-0.7c0-0.2,0.2-0.4,0.4-0.7c6.7-7.8,11.4-16.5,13.7-26.1
		c2.3-9.4,3.5-19.9,3.5-31.2v-14.5c0-0.4,0.2-0.5,0.4-0.7c0.2-0.2,0.4-0.4,0.7-0.4h114.1c0.4,0,0.5,0.2,0.7,0.4
		c0.2,0.2,0.4,0.4,0.4,0.7v4.4c0,0.4-0.2,0.5-0.4,0.7c-0.2,0.2-0.4,0.4-0.7,0.4h-103.4v8h89.4c0.4,0,0.5,0.2,0.7,0.4
		c0.2,0.2,0.4,0.4,0.4,0.7v4.3c0,0.4-0.2,0.5-0.4,0.7c-0.2,0.2-0.4,0.4-0.7,0.4h-89.4c-0.2,3.4-0.4,6.2-0.5,8.5L2674.5,2994.2
		L2674.5,2994.2z M2564.3,2962.8h-1.4c-0.4,0-0.5-0.2-0.7-0.4c-0.2-0.2-0.4-0.5-0.4-0.7v-44c0-0.4,0.2-0.5,0.4-0.7
		c0.2-0.2,0.4-0.4,0.7-0.4h28.9v-11.9c0-0.4,0.2-0.5,0.4-0.7c0.2-0.2,0.4-0.4,0.5-0.4c0.2,0,3.4,0.5,9.6,1.4c0.2,0,0.4,0.2,0.5,0.4
		c0.2,0.2,0.4,0.4,0.4,0.7v10.3h17.7v-11.9c0-0.4,0.2-0.5,0.4-0.7c0.2-0.2,0.4-0.4,0.5-0.4c0.2,0,3.4,0.5,9.6,1.4
		c0.2,0,0.4,0.2,0.5,0.4c0.2,0.2,0.4,0.4,0.4,0.7v10.3h28.4c0.4,0,0.5,0.2,0.7,0.4c0.2,0.2,0.4,0.4,0.4,0.7v39.6
		c0,0.4-0.2,0.9-0.7,1.2c-0.5,0.4-1.4,0.9-2.8,1.6c0,0.2,0,0.2-0.2,0.2c-2,0.7-3.7,1.1-5.3,1.1h-1.4c-0.4,0-0.5-0.2-0.7-0.4
		c-0.2-0.2-0.4-0.4-0.4-0.7v-4.1h-76.8v2.5c0,0.5-0.2,0.9-0.7,1.4s-1.2,0.9-2.7,1.4v0.2C2568,2962.4,2566.1,2962.8,2564.3,2962.8z
		 M2591.8,2933v-9.9h-18.6v9.9H2591.8z M2573.2,2949.6h18.6v-10.3h-18.6V2949.6z M2620.9,2933v-9.9h-17.7v9.9H2620.9z
		 M2620.9,2939.5h-17.7v10.3h17.7V2939.5z M2619.3,3000.7c4.1,5.5,9.4,10.3,15.8,14.2c5.9-3.7,12.1-8.3,18.5-14.2H2619.3z
		 M2650,2933v-9.9h-17.9v9.9H2650z M2632.1,2939.5v10.3h17.9v-10.3H2632.1z"/>
	<path d="M3134.1,3033.9c0-0.2,0-0.2,0-0.4c0-0.2,0-0.4,0.2-0.5c0.2-0.2,0.4-0.2,0.4-0.2c7.5-3.4,15.1-7.8,22.7-13.1
		c7.6-5.5,14.5-11.4,20.4-17.9c0.4-0.2,0.5-0.4,0.7-0.4l0.7,0.4l6.2,8.7c0.2,0.2,0.2,0.4,0.2,0.7c0,0.2-0.2,0.5-0.4,0.7
		c-6.6,6-14.4,11.4-23.2,15.6c-8.9,4.3-17.6,7.6-25.9,9.9c-0.2,0-0.2,0-0.4,0c-0.2,0-0.4,0-0.5-0.2c-0.2-0.2-0.4-0.4-0.4-0.5
		L3134.1,3033.9z M3270.9,2937c0,0.4-0.2,0.5-0.4,0.7c-0.2,0.2-0.4,0.4-0.7,0.4H3230c2,1.2,2.8,2,3,2.1c0.2,0.2,0.2,0.4,0.2,0.5
		s0,0.5-0.2,0.7c-3.2,5.5-6.9,10.1-11.2,13.8h40.1c0.4,0,0.5,0.2,0.7,0.4c0.2,0.2,0.4,0.4,0.4,0.7v4.4c0,0.4-0.2,0.5-0.4,0.7
		c-0.2,0.2-0.4,0.4-0.7,0.4h-53.8v11.7h44.2c0.4,0,0.5,0.2,0.7,0.4c0.2,0.2,0.4,0.4,0.4,0.7v4.4c0,0.4-0.2,0.5-0.4,0.7
		c-0.2,0.2-0.5,0.4-0.7,0.4h-44.2v12.2h60c0.4,0,0.5,0.2,0.7,0.4c0.2,0.2,0.4,0.4,0.4,0.7v4.4c0,0.4-0.2,0.5-0.4,0.7
		c-0.2,0.2-0.4,0.4-0.7,0.4h-60v38.7c0,0.7-0.5,1.4-1.4,2c-0.7,0.5-1.8,0.9-3.2,1.2c-1.4,0.4-2.8,0.5-4.4,0.5h-1.6
		c-0.4,0-0.5-0.2-0.7-0.4c-0.2-0.2-0.4-0.4-0.4-0.7v-41.3h-56.8c-0.4,0-0.5,0-0.7-0.2c-0.2-0.2-0.4-0.4-0.4-0.5
		c-0.9-3-1.4-4.6-1.4-5c0-0.2,0.2-0.4,0.4-0.5c0.2-0.2,0.4-0.4,0.7-0.4h58.2v-12.2H3154c-0.4,0-0.5,0-0.7-0.2
		c-0.2-0.2-0.4-0.4-0.4-0.5c-0.7-3-1.2-4.6-1.2-5c0-0.2,0.2-0.4,0.4-0.5c0.2-0.2,0.4-0.4,0.7-0.4h43.6v-11.7h-49.9
		c-0.4,0-0.5,0-0.7-0.2c-0.2-0.2-0.4-0.4-0.4-0.5c-0.7-3-1.2-4.6-1.2-5c0-0.2,0.2-0.4,0.4-0.5c0.2-0.2,0.5-0.4,0.7-0.4h34.2
		c-0.4-2.5-1.4-5.3-3.2-8.5v-0.2c-2-3.2-3.9-5.9-6.2-7.8c-0.2-0.2-0.4-0.4-0.4-0.7h-32.3c-0.4,0-0.5,0-0.7-0.2
		c-0.2-0.2-0.4-0.4-0.4-0.5c-0.9-3-1.4-4.6-1.4-5c0-0.2,0.2-0.4,0.4-0.5c0.2-0.2,0.4-0.4,0.7-0.4h49v-26.8c0-0.4,0.2-0.5,0.4-0.7
		c0.2-0.2,0.4-0.4,0.5-0.4c0.2,0,3.2,0.5,9.4,1.4c0.2,0,0.4,0.2,0.5,0.4c0.2,0.2,0.4,0.4,0.4,0.7v25.4h13.1v-26.8
		c0-0.4,0.2-0.5,0.4-0.7c0.2-0.2,0.4-0.4,0.5-0.4c0.2,0,3.2,0.5,9.4,1.4c0.2,0,0.4,0.2,0.5,0.4c0.2,0.2,0.4,0.4,0.4,0.7v25.4h4.1
		c6.4-8.5,11.4-16.7,14.9-24.3c0.2-0.4,0.4-0.5,0.7-0.5s0.5,0,0.7,0.2c5.1,3.5,7.8,5.3,8,5.5c0.2,0.2,0.2,0.4,0.2,0.5
		c0,0.2,0,0.5-0.2,0.7c-5.1,7.3-10.6,13.1-16.7,18.1h37.4c0.4,0,0.5,0.2,0.7,0.4c0.2,0.2,0.4,0.4,0.4,0.7v4.3H3270.9z
		 M3155.1,2907.2c0.2-0.2,0.4-0.2,0.5-0.2s0.4,0,0.4,0c10.8,3.7,17.6,8.7,20,15.4c0.5,1.4,0.7,2.8,0.7,4.1c0,2.1-0.7,3.7-2.1,5
		c-1.1,1.1-2.3,1.4-3.5,1.4c-1.2,0-2.7-0.5-4.1-1.8c-0.2-0.2-0.4-0.4-0.4-0.7c-0.5-3.2-2.1-6.7-4.8-10.5c-2.5-3.9-5.3-7.1-8.5-9.9
		c-0.2-0.4-0.4-0.5-0.4-0.7c0-0.4,0.2-0.5,0.4-0.9L3155.1,2907.2z M3190,2951.6c0,1.2-0.4,2.5-0.9,3.5h24c3.4-5.5,6.6-11.2,9.2-17.2
		h-43.8c1.2,0.5,2.5,1.2,3.7,2.1c2.5,1.6,4.3,3.2,5.5,4.8C3189.3,2947.1,3190,2949.5,3190,2951.6z M3214.7,3005c0-0.2,0-0.2,0.2-0.4
		c0.2-0.2,0.4-0.2,0.5-0.2s0.4,0,0.4,0c25.9,6.4,41.9,13.7,48.4,22c1.6,2.1,2.3,3.9,2.3,5.3c0,1.6-0.5,3-1.8,4.1
		c-1.2,1.1-2.5,1.4-3.7,1.4s-2.8-0.5-4.4-1.4c-0.7-0.4-1.2-0.5-1.6-0.9s-0.7-0.7-1.1-1.1c-8.5-8.5-21.8-17-39.7-25.2
		c-0.4-0.2-0.5-0.5-0.5-0.9C3213.6,3007.6,3214,3006.8,3214.7,3005z"/>
	<path d="M3856.7,3025.6c1.2,0.7,2,2,2,3.5c0,1.2-0.5,2.5-1.4,3.4c-2.1,2.1-8.9,3.2-20.6,3.5c-4.4,0.2-9.4,0.4-15.1,0.4
		c-5.7,0.2-12.6,0.2-20.9,0.2h-36.5c-11,0-18.5-1.1-22.5-3.2c-4.3-2.3-6.4-6.7-6.4-13.7v-100.1h-5c-0.4,0-0.5,0-0.7-0.2
		c-0.2-0.2-0.4-0.4-0.4-0.5c-0.7-3-1.2-4.6-1.2-5c0-0.2,0.2-0.4,0.4-0.5s0.4-0.4,0.7-0.4h125.8c0.4,0,0.5,0.2,0.7,0.4
		c0.2,0.2,0.4,0.4,0.4,0.7v4.4c0,0.4-0.2,0.5-0.4,0.7c-0.2,0.2-0.4,0.4-0.7,0.4H3746v98.8c0,3,1.1,5.1,3,6.2c2.3,1.2,6.9,1.8,14,1.8
		h38.3c18.5,0,30.3-0.2,35.3-0.7c0.2,0,0.7,0,2.1,0c1.2,0,2.8-0.4,4.8-0.7c2-0.4,3.2-0.7,3.9-0.9s1.1-0.4,1.2-0.4h1.8h0.2
		C3853.7,3024.1,3855.7,3024.9,3856.7,3025.6z M3786.7,3019c-0.4,0-0.5-0.2-0.7-0.4c-0.2-0.2-0.4-0.4-0.4-0.7v-5.7h-19.3v5.3
		c0,0.5-0.2,0.9-0.7,1.4c-0.5,0.5-1.2,0.9-2.3,1.4c-1.8,0.7-3.5,1.2-5.3,1.2h-1.4c-0.4,0-0.5-0.2-0.7-0.4c-0.2-0.2-0.4-0.4-0.4-0.7
		V2977c0-0.4,0.2-0.5,0.4-0.7c0.2-0.2,0.4-0.4,0.7-0.4h38.7c0.4,0,0.5,0.2,0.7,0.4c0.2,0.2,0.4,0.4,0.4,0.7v38.1
		c0,0.4-0.2,0.9-0.7,1.2c-0.4,0.4-1.4,1.1-3.2,1.6c-1.6,0.7-3.2,0.9-4.6,0.9h-1.1V3019z M3766.3,2982.6v23.4h19.3v-23.4H3766.3z
		 M3783.6,2963.1v3.5c0,0.5-0.2,0.9-0.7,1.4c-0.5,0.5-1.2,0.9-2.7,1.4v0.2c-2,0.7-3.9,1.1-5.9,1.1h-1.4c-0.4,0-0.5-0.2-0.7-0.4
		c-0.2-0.2-0.4-0.4-0.4-0.7v-38.1c0-0.4,0.2-0.5,0.4-0.7c0.2-0.2,0.4-0.4,0.7-0.4h58.2c0.4,0,0.5,0.2,0.7,0.4
		c0.2,0.2,0.4,0.4,0.4,0.7v33.4c0,1.1-1.2,2-3.5,3c-1.8,0.7-3.5,1.2-5.3,1.2h-1.4c-0.4,0-0.5-0.2-0.7-0.4c-0.2-0.2-0.4-0.4-0.4-0.7
		v-4.8h-37.3V2963.1z M3783.6,2936.9v19.9h37.4v-19.9H3783.6z M3838.3,3018.5h-1.4c-0.4,0-0.5-0.2-0.7-0.4c-0.2-0.2-0.4-0.4-0.4-0.7
		v-5h-19.7v3.4c0,0.5-0.2,0.9-0.7,1.4c-0.4,0.4-1.2,0.9-2.5,1.4c-2.7,0.7-4.4,1.2-5.1,1.2h-0.2h-1.4c-0.4,0-0.5-0.2-0.7-0.4
		c-0.2-0.2-0.4-0.4-0.4-0.7v-41.5c0-0.4,0.2-0.5,0.4-0.7c0.2-0.2,0.4-0.4,0.7-0.4h39.2c0.4,0,0.5,0.2,0.7,0.4
		c0.2,0.2,0.4,0.4,0.4,0.7v37.4c0,0.4-0.2,0.9-0.7,1.2c-0.5,0.4-1.4,0.9-2.7,1.6C3841.3,3018.1,3839.7,3018.5,3838.3,3018.5z
		 M3816.1,2982.6v23.4h19.7v-23.4H3816.1z"/>
	<path d="M4334.9,3020.6c3.5-10.8,5.3-23.1,5.3-36.7c0-13.7-1.8-25.9-5.3-36.7c-3.5-10.8-10.1-23.1-19.5-36.7
		c-0.2-0.2-0.2-0.4-0.2-0.7c0-0.2,0.2-0.5,0.4-0.7l3.2-2.7c0.4-0.2,0.5-0.4,0.9-0.4c0.2,0,0.5,0.2,0.7,0.4
		c22,22.2,33.2,47.9,33.2,77.4c0,29.5-11,55.2-33.2,77.4c-0.2,0.2-0.4,0.4-0.7,0.4c-0.2,0-0.5-0.2-0.7-0.4c-2.1-1.6-3.4-2.5-3.4-2.7
		c-0.2-0.2-0.2-0.4-0.2-0.5c0-0.2,0-0.5,0.2-0.7C4324.8,3043.7,4331.3,3031.4,4334.9,3020.6z"/>
	<path d="M4373.9,3020.6c3.5-10.8,5.3-23.1,5.3-36.7c0-13.7-1.8-25.9-5.3-36.7c-3.5-10.8-10.1-23.1-19.5-36.7
		c-0.2-0.2-0.2-0.4-0.2-0.7c0-0.2,0.2-0.5,0.4-0.7l3.2-2.7c0.4-0.2,0.5-0.4,0.9-0.4c0.2,0,0.5,0.2,0.7,0.4
		c22,22.2,33.2,47.9,33.2,77.4c0,29.5-11,55.2-33.2,77.4c-0.2,0.2-0.4,0.4-0.7,0.4c-0.2,0-0.5-0.2-0.7-0.4c-2.1-1.6-3.4-2.5-3.4-2.7
		c-0.2-0.2-0.2-0.4-0.2-0.5c0-0.2,0-0.5,0.2-0.7C4363.8,3043.7,4370.3,3031.4,4373.9,3020.6z"/>
</g>
<g>
	<path d="M1674.9,37.6c-3.9-5.9-7.5-10.5-10.5-13.8c-3-3.4-6.9-6.4-11.7-9.2c-4.8-2.7-10.6-4.1-17.7-4.1V5.3h29.8
		c7.3,0,13.5,2.3,18.5,7.1c5,4.8,10.5,11.5,16.5,20.2l24.8,37.3l49.9-64.8h12.4l-56.1,73.4l39.7,58.5c5.1,7.6,10.6,14,16.5,19.2
		c5.9,5.1,12.4,7.8,19.5,7.8v5.3h-26.1c-7.1,0-13.5-2.5-19-7.6c-5.5-5.1-10.8-11.7-16-19.9L1715.7,97l-56.1,72.2h-12.4l62.3-80.9
		L1674.9,37.6z"/>
	<path d="M1846.5,167.3c-3-1.6-5.3-4.4-6.6-8.5c-1.4-4.1-2-10.5-2-19V5.3h22.4v134.5c0,8.5,1.2,14.7,3.5,18.8c2.3,4.1,6.9,6,14,6h5
		v5h-22.4C1854.1,169.6,1849.5,168.7,1846.5,167.3z"/>
	<path d="M2028.5,163.6c-7.8-3.9-14-12.4-18.6-25.2l-6.2-17.4H1934l-19.9,48.6h-11.2l69.7-165.5h7.5l54.8,134.5
		c4.1,9.6,8,16.1,11.7,19.9c3.7,3.5,8.9,5.7,15.6,6.2v5c-3,0-6.4,0-9.9,0C2044.3,169.6,2036.3,167.7,2028.5,163.6z M1998.7,111.1
		l-29.8-72.2l-31,72.2H1998.7z"/>
	<path d="M2112.3,163c-11.7-7.6-20.8-18.1-27-31.4c-6.4-13.3-9.4-28-9.4-44.4s3.2-31,9.4-44.4c6.4-13.3,15.3-23.8,27-31.4
		C2124,3.9,2137.5,0,2152.9,0s28.9,3.9,40.6,11.5c11.7,7.6,20.8,18.1,27,31.4c6.4,13.3,9.4,28,9.4,44.4s-3.2,31-9.4,44.4
		c-6.4,13.3-15.3,23.8-27,31.4c-11.7,7.6-25.2,11.5-40.6,11.5S2124,170.7,2112.3,163z M2180.9,155.1c7.8-6.4,13.8-15.3,18.1-26.8
		c4.1-11.5,6.2-25.2,6.2-41c0-15.8-2.1-29.5-6.2-41s-10.1-20.4-18.1-26.8c-7.8-6.4-17.2-9.4-28-9.4s-20,3.2-28,9.4
		c-7.8,6.4-13.8,15.3-18.1,26.8c-4.1,11.5-6.2,25.2-6.2,41c0,15.8,2.1,29.5,6.2,41c4.1,11.5,10.1,20.4,18.1,26.8
		c7.8,6.4,17.2,9.4,28,9.4C2163.7,164.6,2173.1,161.4,2180.9,155.1z"/>
	<path d="M2275.1,16.3c-2.3-4.1-6.9-6-14-6h-5v-5h64.8c18.1,0,33.9,3,47.2,9c13.3,6,20,17.6,20,34.6c0,7.8-2.7,14.9-8,21.1
		c-5.3,6.4-13.5,11.4-24.3,14.9c15.3,2.5,25.9,7.1,31.9,13.5c6,6.6,9,15.3,9,26.3c0,16.7-6.6,28.4-19.9,34.9
		c-13.1,6.6-29.5,9.8-48.6,9.8h-49.9V34.9C2278.7,26.8,2277.6,20.4,2275.1,16.3z M2344,77.4c6-2.5,11-6.4,14.7-11.5
		c3.9-5.1,5.7-11.2,5.7-18.3c0-7.5-2.3-13.7-6.7-18.8c-4.4-5.1-10.1-8.9-17-11.2c-6.9-2.5-13.8-3.5-21.1-3.5
		c-5.9,0-12.1,0.9-18.6,2.5v64.8h23.6C2331.5,81.3,2337.9,80,2344,77.4z M2359.8,151.9c8.2-6,12.2-14.5,12.2-25.9
		c0-11.4-4.1-19.9-12.1-25.9c-8-6-19.9-9-35.3-9H2301v66.2c8,2.3,15.8,3.5,23.6,3.5C2339.9,160.9,2351.4,157.9,2359.8,151.9z"/>
	<path d="M2549.2,163.6c-7.8-3.9-14-12.4-18.6-25.2l-6.2-17.4h-69.7l-19.9,48.6h-11.2l69.7-165.5h7.5l54.8,134.5
		c4.1,9.6,8,16.1,11.7,19.9c3.7,3.5,8.9,5.7,15.6,6.2v5c-3,0-6.4,0-9.9,0C2564.8,169.6,2557,167.7,2549.2,163.6z M2519.4,111.1
		l-29.8-72.2l-31,72.2H2519.4z"/>
	<path d="M2625.9,169.6h-9.9V35.1c0-8-1.8-14-5.1-18.5c-3.4-4.3-9.2-6.4-17.4-6.4h-2.5v-5h16.1c7.6,0,14,1.2,19.3,3.7
		c5.3,2.5,10.1,6.2,14.2,11.2l87.1,108.2V5.3h9.9v166.8h-5l-107-133.2v130.8H2625.9z"/>
	<path d="M2812.9,15.3c-20.8,0-31,9.6-31,28.6h-5V25.2c0-13.3,7.1-19.9,21.1-19.9h115.7v9.9h-56.1v154.3h-22.4V15.3L2812.9,15.3
		L2812.9,15.3z"/>
	<path d="M2959.8,167.3c-3-1.6-5.3-4.4-6.6-8.5c-1.4-4.1-2-10.5-2-19V5.3h22.4v134.5c0,8.5,1.2,14.7,3.5,18.8s6.9,6,14,6h5v5h-22.4
		C2967.4,169.6,2962.8,168.7,2959.8,167.3z"/>
	<path d="M3141.8,163.6c-7.8-3.9-14-12.4-18.6-25.2l-6.2-17.4h-69.7l-19.9,48.6h-11.2l69.7-165.5h7.5l54.8,134.5
		c4.1,9.6,8,16.1,11.7,19.9c3.7,3.5,8.9,5.7,15.6,6.2v5c-3,0-6.4,0-9.9,0C3157.6,169.6,3149.6,167.7,3141.8,163.6z M3112,111.1
		l-29.8-72.2l-31,72.2H3112z"/>
	<path d="M3218.4,169.6h-9.9V35.1c0-8-1.8-14-5.1-18.5c-3.4-4.3-9.2-6.4-17.4-6.4h-2.5v-5h16.1c7.6,0,14,1.2,19.3,3.7
		c5.3,2.5,10.1,6.2,14.2,11.2l87.1,108.2V5.3h9.9v166.8h-5l-107-133.2v130.8H3218.4z"/>
	<path d="M1396.6,262.4c-1.4-2.7-4.4-3.9-8.9-3.9h-3.2v-3.2h14.4c3.9,0,6.9,0.5,8.9,1.6c2,1.1,3.4,2.8,4.3,5.5s1.2,6.7,1.2,12.1
		v79.3h56.4v6.4h-70.6v-85.7C1398.7,269,1398,264.9,1396.6,262.4z"/>
	<path d="M1490.1,262.4c-1.4-2.7-4.4-3.9-8.9-3.9h-3.2v-3.2h67.6c9,0,13.5,4.3,13.5,12.8V280h-3.2c0-12.2-6.6-18.3-19.9-18.3h-29.5
		V303h42.9v6.4h-42.9v44.4h27.9c7.3,0,13-1.2,17.2-3.9c4.1-2.7,7.5-7.1,9.8-13.5l3.2,0.7l-5.5,15.1c-2,5.3-5.9,8-11.9,8h-54.8v-85.7
		C1492.2,269,1491.5,264.9,1490.1,262.4z"/>
	<path d="M1596.5,358.5c-2-1.1-3.4-2.8-4.3-5.5s-1.2-6.7-1.2-12.1v-85.7h14.4V341c0,5.3,0.7,9.4,2.3,12.1c1.4,2.7,4.4,3.9,8.9,3.9
		h3.2v3.2h-14.4C1601.5,360.1,1598.7,359.6,1596.5,358.5z"/>
	<path d="M1657.7,359.8c-5.7-1.2-10.1-3.4-13.7-6.2c-3.5-3-5.3-6.4-5.3-10.1v-18.1h2.8c1.8,11.4,5.3,19.2,10.5,23.4
		c5.1,4.3,12.2,6.6,21.5,6.6c5.7,0,10.6-1.2,14.7-3.7c4.1-2.5,6-6.2,6-11.4c0-4.4-1.4-8.3-4.1-11.5c-2.8-3.2-7.3-6.7-13.3-10.3
		l-19.5-11.5c-6.7-4.1-11.5-8.2-14.4-12.2c-2.8-4.1-4.3-9.2-4.3-15.1c0-8.2,2.8-14.9,8.5-20.2c5.7-5.3,13.1-8,22.4-8
		c5.3,0,10.8,0.9,16,2.8c5.3,2,9.6,4.3,13.1,7.3c3.4,2.8,5.1,6.2,5.1,10.1v15.8h-2.8c-1.8-9.8-5.1-17.2-10.3-22.2
		c-5-5-12.1-7.5-21.1-7.5c-4.8,0-9.2,1.6-12.8,5c-3.7,3.4-5.5,7.5-5.5,12.1c0,4.3,1.4,8,4.1,10.8s7.3,6.2,13.5,9.9l19.5,11.5
		c7.3,4.3,12.2,8.3,15.3,12.1c3,3.7,4.4,8.3,4.4,14.2c0,8.9-3,15.8-8.9,20.8c-5.9,5-14,7.5-24.1,7.5
		C1669.1,361.7,1663.4,361,1657.7,359.8z"/>
	<path d="M1754.8,356.4c-5.9-3.4-10.1-8.5-12.6-15.3c-2.5-6.7-3.7-15.6-3.7-26.4v-40.4c0-5.3-0.7-9.4-2.3-12.1
		c-1.4-2.7-4.4-3.9-8.9-3.9h-3.2v-3.2h14.4c3.9,0,6.9,0.5,8.9,1.6c2,1.1,3.4,2.8,4.3,5.5c0.9,2.7,1.2,6.7,1.2,12.1v45.2
		c0,11.7,2.1,20.6,6.6,26.6c4.3,6,11.5,9,21.6,9c8,0,14.4-1.4,19.2-4.3c4.8-2.8,8-7.3,10.1-13c2-5.9,3-13.5,3-23.2v-59.6h6.4v59.6
		c0,11-1.2,19.9-3.5,26.6c-2.3,6.7-6.4,11.7-12.2,15.1c-5.9,3.4-14,5.1-24.7,5.1C1768.8,361.7,1760.6,360,1754.8,356.4z"/>
	<path d="M1911.8,356.6c-4.3-3.4-8.9-9.4-13.8-18.1l-15.8-27H1871V360h-14.4v-85.7c0-5.3-0.7-9.4-2.3-12.1c-1.4-2.7-4.4-3.9-8.9-3.9
		h-3.2v-3.2h41.3c10.1,0,19.2,2,27.3,6c8.2,3.9,12.2,11.5,12.2,22.7c0,14-8.5,23.1-25.4,27l16.7,27.9c3.9,6.6,7.5,11.2,10.6,13.7
		c3.2,2.7,6.7,4.1,10.8,4.6v3.2c-0.9,0.4-2.3,0.7-4.1,1.1c-1.8,0.4-3.5,0.5-5.5,0.5C1920.8,361.7,1915.9,360,1911.8,356.6z
		 M1893.5,303.7c3.9-1.6,7.1-4.1,9.8-7.5s4.1-7.5,4.1-12.4c0-5.1-1.4-9.6-4.1-13c-2.7-3.4-6-6-9.8-7.6c-3.9-1.6-7.5-2.5-10.6-2.5
		c-3.7,0-7.6,0.5-11.9,1.6v42c4.3,1.1,8.2,1.6,11.9,1.6C1886.1,306,1889.6,305.3,1893.5,303.7z"/>
	<path d="M1956.7,262.4c-1.4-2.7-4.4-3.9-8.9-3.9h-3.2v-3.2h67.6c9,0,13.5,4.3,13.5,12.8V280h-3.2c0-12.2-6.6-18.3-19.9-18.3h-29.5
		V303h42.9v6.4h-42.9v44.4h27.9c7.3,0,13-1.2,17.2-3.9c4.1-2.7,7.5-7.1,9.8-13.5l3.2,0.7l-5.5,15.1c-2,5.3-5.9,8-11.9,8H1959v-85.7
		C1959,269,1958.3,264.9,1956.7,262.4z"/>
	<path d="M2175.1,356.2c-5-2.5-8.9-7.8-11.9-16l-3.9-11.2h-44.5L2102,360h-7.1l44.5-105.6h4.8l34.9,85.7c2.7,6.2,5.1,10.3,7.5,12.6
		c2.3,2.3,5.7,3.5,9.9,4.1v3.2c-2,0-4.1,0-6.4,0C2185,360.1,2180,358.7,2175.1,356.2z M2155.9,322.7l-19-45.9l-19.9,45.9H2155.9z"/>
	<path d="M2231,355.7c-8.2-5.1-14.5-12.1-19.2-20.8c-4.6-8.7-6.9-18.3-6.9-28.7c0-10.1,2-19.2,6-27.3c4.1-8.2,9.8-14.7,17.2-19.5
		c7.5-4.8,16.1-7.1,25.9-7.1c9,0,17,1.2,23.6,3.5c6.6,2.3,11.5,5.5,14.5,9c1.8,2.1,2.8,5,3.2,8.3c0.5,3.5,0.7,7.8,0.7,13h-3.2
		c-2-9.2-5.9-16.3-11.4-20.9c-5.7-4.6-13.1-6.9-22.7-6.9c-8.5,0-15.8,2.3-21.5,6.7c-5.7,4.4-9.9,10.3-12.6,17.6
		c-2.7,7.3-4.1,14.9-4.1,23.4c0,17.9,3.5,30.9,10.5,38.9c6.9,8,16.1,12.1,27.7,12.1c5.3,0,9.9-0.5,13.8-1.4
		c3.7-0.9,7.5-2.3,10.8-4.1v-27.7c0-3.5,0.5-6.7,1.8-9.4c1.2-2.7,3.7-4.8,7.5-6.6c3.9-1.8,9.6-2.7,16.9-2.7v3.2
		c-4.8,0-8,1.2-9.6,3.7c-1.6,2.5-2.3,6.2-2.3,11.4v29.8c-5.7,3.5-11.7,6-17.9,7.6c-6.2,1.6-13.3,2.3-20.9,2.3
		C2248.3,363.2,2239.1,360.7,2231,355.7z"/>
	<path d="M2392,356.6c-4.3-3.4-8.9-9.4-13.8-18.1l-15.8-27h-11.2V360h-14.4v-85.7c0-5.3-0.7-9.4-2.3-12.1c-1.4-2.7-4.4-3.9-8.9-3.9
		h-3.2v-3.2h41.3c10.1,0,19.2,2,27.3,6c8.2,3.9,12.2,11.5,12.2,22.7c0,14-8.5,23.1-25.4,27l16.7,27.9c3.9,6.6,7.5,11.2,10.6,13.7
		c3.2,2.7,6.7,4.1,10.8,4.6v3.2c-0.9,0.4-2.3,0.7-4.1,1.1c-1.8,0.4-3.5,0.5-5.5,0.5C2401.1,361.7,2396.3,360,2392,356.6z
		 M2373.8,303.7c3.9-1.6,7.1-4.1,9.8-7.5s4.1-7.5,4.1-12.4c0-5.1-1.4-9.6-4.1-13c-2.7-3.4-6-6-9.8-7.6c-3.9-1.6-7.5-2.5-10.6-2.5
		c-3.7,0-7.6,0.5-11.9,1.6v42c4.3,1.1,8.2,1.6,11.9,1.6C2366.3,306,2369.9,305.3,2373.8,303.7z"/>
	<path d="M2442.1,358.5c-2-1.1-3.4-2.8-4.3-5.5c-0.9-2.7-1.2-6.7-1.2-12.1v-85.7h14.4V341c0,5.3,0.7,9.4,2.3,12.1
		c1.4,2.7,4.4,3.9,8.9,3.9h3.2v3.2h-14.4C2447,360.1,2444,359.6,2442.1,358.5z"/>
	<path d="M2504.7,356.1c-7.5-4.8-13.1-11.2-17.2-19.5c-4.1-8.2-6-17.4-6-27.3c0-10.3,2.1-19.9,6.6-28.7c4.4-8.9,10.3-15.8,17.9-20.8
		c7.6-5.1,15.8-7.6,24.7-7.6c8.5,0,16,1.2,22.4,3.5c6.4,2.3,11.2,5.5,14.2,9c1.8,2.3,2.8,5.1,3.4,8.9c0.4,3.7,0.7,8.7,0.7,15.1h-3.2
		c-2-10.3-5.7-17.9-11.2-22.7c-5.5-4.8-12.6-7.5-21.5-7.5c-11.4,0-20.6,4.1-27.7,12.1c-6.9,8-10.5,20.9-10.5,38.7
		c0,8.3,1.4,16.1,4.1,23.4c2.7,7.3,6.9,13.1,12.6,17.6c5.7,4.4,12.8,6.7,21.5,6.7c7.8,0,14.5-1.8,20.2-5.5c5.7-3.7,11-9.2,15.4-16.7
		l3.2,2.3c-4.8,9.6-10.8,16.3-18.1,20.2c-7.1,3.9-15.6,6-25.7,6C2520.8,363.2,2512.1,360.9,2504.7,356.1z"/>
	<path d="M2620,356.4c-5.9-3.4-10.1-8.5-12.6-15.3c-2.5-6.7-3.7-15.6-3.7-26.4v-40.4c0-5.3-0.7-9.4-2.3-12.1
		c-1.4-2.7-4.4-3.9-8.9-3.9h-3.2v-3.2h14.4c3.9,0,6.9,0.5,8.9,1.6c2,1.1,3.4,2.8,4.3,5.5c0.9,2.7,1.2,6.7,1.2,12.1v45.2
		c0,11.7,2.1,20.6,6.6,26.6c4.3,6,11.5,9,21.6,9c8,0,14.4-1.4,19.2-4.3c4.8-2.8,8-7.3,10.1-13c2-5.9,3-13.5,3-23.2v-59.6h6.4v59.6
		c0,11-1.2,19.9-3.5,26.6c-2.3,6.7-6.4,11.7-12.2,15.1c-5.9,3.4-14.2,5.1-24.7,5.1C2634,361.7,2626,360,2620,356.4z"/>
	<path d="M2719.5,262.4c-1.4-2.7-4.4-3.9-8.9-3.9h-3.2v-3.2h14.4c3.9,0,6.9,0.5,8.9,1.6c2,1.1,3.4,2.8,4.3,5.5
		c0.9,2.7,1.2,6.7,1.2,12.1v79.3h56.4v6.4H2722v-85.7C2721.8,269,2721.1,264.9,2719.5,262.4z"/>
	<path d="M2808.6,261.7c-13.3,0-19.9,6-19.9,18.3h-3.2v-11.9c0-8.5,4.4-12.8,13.5-12.8h73.8v6.4h-35.7v98.5h-14.4v-98.5
		L2808.6,261.7L2808.6,261.7z"/>
	<path d="M2914.7,356.4c-5.9-3.4-10.1-8.5-12.6-15.3c-2.5-6.7-3.7-15.6-3.7-26.4v-40.4c0-5.3-0.7-9.4-2.3-12.1
		c-1.4-2.7-4.4-3.9-8.9-3.9h-3.2v-3.2h14.4c3.9,0,6.9,0.5,8.9,1.6c2,1.1,3.4,2.8,4.3,5.5c0.9,2.7,1.2,6.7,1.2,12.1v45.2
		c0,11.7,2.1,20.6,6.6,26.6c4.3,6,11.5,9,21.6,9c8,0,14.4-1.4,19.2-4.3c4.8-2.8,8-7.3,10.1-13c2-5.9,3-13.5,3-23.2v-59.6h6.4v59.6
		c0,11-1.2,19.9-3.5,26.6c-2.3,6.7-6.4,11.7-12.2,15.1c-5.9,3.4-14.2,5.1-24.7,5.1C2928.7,361.7,2920.7,360,2914.7,356.4z"/>
	<path d="M3071.7,356.6c-4.3-3.4-8.9-9.4-13.8-18.1l-15.8-27h-11.2V360h-14.4v-85.7c0-5.3-0.7-9.4-2.3-12.1
		c-1.4-2.7-4.4-3.9-8.9-3.9h-3.2v-3.2h41.3c10.1,0,19.2,2,27.3,6c8.2,3.9,12.2,11.5,12.2,22.7c0,14-8.5,23.1-25.4,27l16.7,27.9
		c3.9,6.6,7.5,11.2,10.6,13.7c3.2,2.7,6.7,4.1,10.8,4.6v3.2c-0.9,0.4-2.3,0.7-4.1,1.1c-1.8,0.4-3.5,0.5-5.5,0.5
		C3080.7,361.7,3075.8,360,3071.7,356.6z M3053.4,303.7c3.9-1.6,7.1-4.1,9.8-7.5s4.1-7.5,4.1-12.4c0-5.1-1.4-9.6-4.1-13
		c-2.7-3.4-6-6-9.8-7.6c-3.9-1.6-7.5-2.5-10.6-2.5c-3.7,0-7.6,0.5-11.9,1.6v42c4.3,1.1,8.2,1.6,11.9,1.6
		C3046,306,3049.5,305.3,3053.4,303.7z"/>
	<path d="M3116.6,262.4c-1.4-2.7-4.4-3.9-8.9-3.9h-3.2v-3.2h67.6c9,0,13.5,4.3,13.5,12.8V280h-3.2c0-12.2-6.6-18.3-19.9-18.3h-29.5
		V303h42.9v6.4h-42.9v44.4h27.9c7.3,0,13-1.2,17.2-3.9c4.1-2.7,7.5-7.1,9.8-13.5l3.2,0.7l-5.5,15.1c-2,5.3-5.9,8-11.9,8h-54.8v-85.7
		C3118.9,269,3118.2,264.9,3116.6,262.4z"/>
	<path d="M3335,356.2c-5-2.5-8.9-7.8-11.9-16l-3.9-11.2h-44.5l-12.8,30.9h-7.1l44.5-105.6h4.8l34.9,85.7c2.7,6.2,5.1,10.3,7.5,12.6
		c2.3,2.3,5.7,3.5,9.9,4.1v3.2c-2,0-4.1,0-6.4,0C3344.9,360.1,3339.9,358.7,3335,356.2z M3315.8,322.7l-19-45.9l-19.9,45.9H3315.8z"
		/>
	<path d="M3432,356.6c-4.3-3.4-8.9-9.4-13.8-18.1l-15.8-27h-11.2V360h-14.4v-85.7c0-5.3-0.7-9.4-2.3-12.1c-1.4-2.7-4.4-3.9-8.9-3.9
		h-3.2v-3.2h41.3c10.1,0,19.2,2,27.3,6c8.2,3.9,12.2,11.5,12.2,22.7c0,14-8.5,23.1-25.4,27l16.7,27.9c3.9,6.6,7.5,11.2,10.6,13.7
		c3.2,2.7,6.7,4.1,10.8,4.6v3.2c-0.9,0.4-2.3,0.7-4.1,1.1c-1.8,0.4-3.5,0.5-5.5,0.5C3441.1,361.7,3436.1,360,3432,356.6z
		 M3413.7,303.7c3.9-1.6,7.1-4.1,9.8-7.5s4.1-7.5,4.1-12.4c0-5.1-1.4-9.6-4.1-13c-2.7-3.4-6-6-9.8-7.6c-3.9-1.6-7.5-2.5-10.6-2.5
		c-3.7,0-7.6,0.5-11.9,1.6v42c4.3,1.1,8.2,1.6,11.9,1.6C3406.3,306,3409.8,305.3,3413.7,303.7z"/>
	<path d="M3476.9,262.4c-1.4-2.7-4.4-3.9-8.9-3.9h-3.2v-3.2h67.6c9,0,13.5,4.3,13.5,12.8V280h-3.2c0-12.2-6.6-18.3-19.9-18.3h-29.5
		V303h42.9v6.4h-42.9v44.4h27.9c7.3,0,13-1.2,17.2-3.9c4.1-2.7,7.5-7.1,9.8-13.5l3.2,0.7l-5.5,15.1c-2,5.3-5.9,8-11.9,8h-54.8v-85.7
		C3479.2,269,3478.5,264.9,3476.9,262.4z"/>
	<path d="M3647.6,356.2c-5-2.5-8.9-7.8-11.9-16l-3.9-11.2h-44.5l-12.8,30.9h-7.1l44.5-105.6h4.8l34.9,85.7
		c2.7,6.2,5.1,10.3,7.5,12.6c2.3,2.3,5.7,3.5,9.9,4.1v3.2c-2,0-4.1,0-6.4,0C3657.7,360.1,3652.5,358.7,3647.6,356.2z M3628.6,322.7
		l-19-45.9l-19.9,45.9H3628.6z"/>
</g>
</svg>
