<?xml version="1.0" encoding="utf-8"?>
<!-- Generator: Adobe Illustrator 25.4.1, SVG Export Plug-In . SVG Version: 6.00 Build 0)  -->
<svg version="1.1" id="圖層_1" xmlns="http://www.w3.org/2000/svg" xmlns:xlink="http://www.w3.org/1999/xlink" x="0px" y="0px"
	 viewBox="0 0 5083 3061.4" style="enable-background:new 0 0 5083 3061.4;" xml:space="preserve">
<style type="text/css">
	.st0{fill:url(#SVGID_1_);}
	.st1{fill:url(#SVGID_00000145762144583150595050000012325183879028746163_);}
	.st2{fill:url(#SVGID_00000020363414691116297810000017785958085990772374_);}
	.st3{fill:url(#SVGID_00000120527186565037221310000016235631436179622287_);}
	.st4{fill:url(#SVGID_00000021816819127578395540000004315503040195911575_);}
	.st5{fill:#FFFFFF;}
	.st6{fill:url(#SVGID_00000005973270202909795150000014962527263588747672_);}
	.st7{fill:url(#SVGID_00000090276443213378976210000016274907561612210305_);}
	.st8{fill:url(#SVGID_00000119828869361919965410000015991104857892573118_);}
	.st9{fill:url(#SVGID_00000073708782895753812180000018389538761942204565_);}
	.st10{fill:url(#SVGID_00000176762484761503301500000000701960539829148309_);}
	.st11{fill:url(#SVGID_00000180357583438558009340000003395078299214784952_);}
	.st12{fill:url(#SVGID_00000145018299467245631570000005050536564081519281_);}
	.st13{fill:url(#SVGID_00000070841561657085167920000008212605108678767502_);}
	.st14{fill:url(#SVGID_00000091005267869036026360000003047571313055043501_);}
	.st15{fill:url(#SVGID_00000085226374925506664380000013681548634198860723_);}
	.st16{fill:url(#SVGID_00000164513947256504926840000007690739858220105877_);}
	.st17{fill:url(#SVGID_00000013184397928349900140000001184029424647092634_);}
	.st18{fill:url(#SVGID_00000175290644988623039540000008926166141269874311_);}
	.st19{fill:url(#SVGID_00000015349428766795800750000016268954045033998742_);}
	.st20{fill:url(#SVGID_00000163056778328665808120000000626049246490418587_);}
	.st21{fill:url(#SVGID_00000148624588307775509220000015618450624965171328_);}
	.st22{fill:url(#SVGID_00000048480092335849502230000012248397750301363611_);}
	.st23{fill:url(#SVGID_00000070109833454377503700000009447534752716137878_);}
	.st24{fill:url(#SVGID_00000181780470045299400310000000472638035078604169_);}
	.st25{fill:url(#SVGID_00000051381035335041552600000004257085508755317150_);}
	.st26{fill:url(#SVGID_00000116227581712700129640000016771756936598192304_);}
	.st27{fill:url(#SVGID_00000010298853681873267460000005118634469011345597_);}
	.st28{fill:url(#SVGID_00000031906225525026209210000016363224330156037510_);}
	.st29{fill:url(#SVGID_00000155848073343177555440000004266137396458699669_);}
	.st30{fill:url(#SVGID_00000147220369250070652210000009276579532802731187_);}
	.st31{fill:url(#SVGID_00000119824458791330439990000011826620358797637279_);}
	.st32{fill:url(#SVGID_00000012466737454327760300000010341920969556256132_);}
	.st33{fill:url(#SVGID_00000104671570406028813630000009234247105595882932_);}
	.st34{fill:url(#SVGID_00000170974128275893742250000010202165324690444166_);}
	.st35{fill:url(#SVGID_00000140734132481442002050000001349047784787613592_);}
	.st36{fill:url(#SVGID_00000031199386876048056070000018310110564931025074_);}
	.st37{fill:url(#SVGID_00000095324691357047801090000014561287040929305237_);}
	.st38{fill:url(#SVGID_00000026157405665445919010000000658093684850092959_);}
</style>
<g>
	
		<linearGradient id="SVGID_1_" gradientUnits="userSpaceOnUse" x1="124.8107" y1="984.3" x2="124.8107" y2="1601.8" gradientTransform="matrix(1 0 0 -1 0 3062)">
		<stop  offset="0" style="stop-color:#FFFFFF;stop-opacity:0"/>
		<stop  offset="7.541899e-02" style="stop-color:#FFFFFF;stop-opacity:0"/>
		<stop  offset="0.6229" style="stop-color:#FFFFFF"/>
		<stop  offset="1" style="stop-color:#FFFFFF"/>
	</linearGradient>
	<path class="st0" d="M233.7,1508.3c-6-11.8-14.9-22-26.8-30.3c-11.9-7.1-23.8-13.1-35.9-17.8c-25,9.6-37.4,27.5-37.4,53.6
		c0,27.3-0.6,51.1-1.8,71.3c-6,44.2-16.7,91.7-32.1,142.8C83.1,1779,60,1820.1,30.2,1851l-28.6,78.6c-3.5,17.7-1.2,39.9,7.1,66
		c8.3,26.3,19,44.8,32.1,55.4l48.3,26.7c11.9-3.7,19-9.6,21.5-17.9c1-8.3,4.6-17.2,10.6-26.8l44.5-26.8l25-53.6l42.8-123.1v-23.2
		l16.1-83.9l-5.3-144.6L233.7,1508.3z"/>
	
		<linearGradient id="SVGID_00000179645360291180826220000004788059922235881918_" gradientUnits="userSpaceOnUse" x1="1193.1652" y1="1219.4585" x2="1193.1652" y2="1639.5" gradientTransform="matrix(1 0 0 -1 0 3062)">
		<stop  offset="0" style="stop-color:#FFFFFF;stop-opacity:0"/>
		<stop  offset="7.541899e-02" style="stop-color:#FFFFFF;stop-opacity:0"/>
		<stop  offset="0.6229" style="stop-color:#FFFFFF"/>
		<stop  offset="1" style="stop-color:#FFFFFF"/>
	</linearGradient>
	<path style="fill:url(#SVGID_00000179645360291180826220000004788059922235881918_);" d="M1416.1,1679.5l-5.3-5.3l-5.3,12.4
		c-8.3-2.5-13.8-9.1-16.1-19.7c-3.6-9.6-8.3-19-14.2-28.6l-44.5-58.9l-23.2-10.6l-10.6-30.3l-105.2-58.9l-74.9-12.4l-23.2-14.2
		l-100.4-30.5l-25,21.5c1.2,23.8,11.3,44,30.3,60.7c17.9,17.7,34.6,32.6,50,44.5l80.4,107l76.6,96.3c25,31,51.8,60.6,80.4,89.2
		c38.2,2.5,66.7-0.6,85.7-8.9s33.9-31.4,44.5-69.5c3.6-14.2,2.4-28.6-3.5-42.8C1405.5,1706.3,1406.5,1692.6,1416.1,1679.5z"/>
	
		<linearGradient id="SVGID_00000123435268990345317510000007654873801423824295_" gradientUnits="userSpaceOnUse" x1="584.1198" y1="751" x2="584.1198" y2="1989" gradientTransform="matrix(1 0 0 -1 0 3062)">
		<stop  offset="0" style="stop-color:#FFFFFF;stop-opacity:0"/>
		<stop  offset="7.541899e-02" style="stop-color:#FFFFFF;stop-opacity:0"/>
		<stop  offset="0.6229" style="stop-color:#FFFFFF"/>
		<stop  offset="1" style="stop-color:#FFFFFF"/>
	</linearGradient>
	<path style="fill:url(#SVGID_00000123435268990345317510000007654873801423824295_);" d="M786.8,1167.5l-101.7-57.1l-37.4-8.9
		c-17.9-11.8-34.6-19.7-50-23.2c-16.7-3.5-35.6-5.3-57.1-5.3l-39.3,28.3c-8.4,22.8-6.6,38.7,5.3,48.3c11.9,10.6,26.1,20.7,42.8,30.3
		c24.9,36.9,38.5,70.8,41,101.7c1.2,30.9,0.5,66-1.8,105.2l23.2,214.1l1.8,190.9c5.9,29.8,8.9,69,8.9,117.8
		c-1.2,48.8-9,85.7-23.2,110.7c-8.4,0-19.7-4.6-33.9-14.2c-15.4-9.6-26.8-19-33.9-28.6c-5.9,0-8.9,1.2-8.9,3.5l-5.3,12.4
		c-13.2-1.3-29.3-8.4-48.3-21.5c-20.4-11.9-36.4-23.8-48.3-35.7c-9.6,0-18.5-1-26.8-3.5c-8.3-2.4-17.2-1.3-26.8,3.5v30.3
		c9.5,14.3,30.3,33.3,62.4,57.1c30.8,23.8,54.1,45.8,69.5,66l44.5,58.9c15.4,20.2,26.8,40.9,33.9,62.4l17.9,51.8
		c6,19.2,14.4,35.2,25,48.3l50-12.4c9.6-8.3,16.2-17.2,19.7-26.8l7.1-32.1l21.5-25c8.3-9.4,13.6-20.8,16.1-33.9
		c2.4-11.9,7.8-23.8,16.1-35.7c9.6-20.2,16.7-48.8,21.5-85.7c4.8-35.7,5.3-65,1.8-87.5l-1.8-32.1c-1-11.9-4.7-21.5-10.6-28.6
		l5.3-189.1c-8.3-51.1-13-105.7-14.2-164.1c-1.2-58.2,1.8-113,8.9-164.1V1294l7.1-14.2l8.9-46.3l21.5-12.4
		C804,1194.8,799.9,1177.1,786.8,1167.5z M736.8,1348v-19.7l5.3,14.2L736.8,1348z"/>
	
		<linearGradient id="SVGID_00000007386257810017109620000005820820775168549773_" gradientUnits="userSpaceOnUse" x1="2456.4836" y1="501.049" x2="2456.4836" y2="2232.6992" gradientTransform="matrix(1 0 0 -1 0 3062)">
		<stop  offset="0" style="stop-color:#FFFFFF;stop-opacity:0"/>
		<stop  offset="7.541899e-02" style="stop-color:#FFFFFF;stop-opacity:0"/>
		<stop  offset="0.6229" style="stop-color:#FFFFFF"/>
		<stop  offset="1" style="stop-color:#FFFFFF"/>
	</linearGradient>
	<path style="fill:url(#SVGID_00000007386257810017109620000005820820775168549773_);" d="M3256.9,1664l-7.1,3.5l-41-44.5
		c-13.1-9.6-26.1-16.2-39.2-19.7c-13-2.3-27.4-5.8-42.8-10.6c-32.1-8.4-55.3-8.9-69.5-1.8c-15.5,8.3-38,13-67.8,14.2l-283.7,32.1
		l-121.3,25l-23.2-12.4c-11.9-7.3-15.9-13.7-12.4-19.7c3.5-4.8,7.1-13.7,10.6-26.8l-5.3-23.2l14.2-30.3l-25-19.7l10.6-33.9
		c5.9-3.7,19.5-9,41-16.1c20.3-5.8,32.2-9.9,35.7-12.4l8.9-14.2l10.6,7.1l73.1,1.8l53.6-14.2l16.1,1.8l46-36.1
		c2.3-8.4,3-15.5,1.8-21.5s-7.3-11.3-17.9-16.1l7.1-5.3c3.6-5.8,4.1-9.9,1.8-12.4l-10.6-10.6l-117.8,5.3l-16.1,28.6
		c-10.7,3.5-24.9,4.7-42.8,3.5c-17.8,0-31.4,3-41,8.9c-9.5,1.3-22,1.8-37.4,1.8s-26.8-6.6-33.9-19.7c-1.3-14.2,2.3-27.3,10.6-39.2
		c7.1-11.9-0.7-26.1-23.2-42.8l3.6-16.9c10.5-3.6,18.8-8.3,24.9-14.4c7.1-7.3,16.2-13.1,26.8-17.9l44.5-7.1l10.6-12.4l46.3-14.2
		l30.3-21.5h16.1l57.1-33.9c26.1-8.3,50.6-16.7,73.1-25l69.5-26.8c0-11.8-5.5-19.7-16.1-23.2c-11.9-2.4-22.5-7.8-32.1-16.1
		c-9.5-13.2-22-25.1-37.4-35.7c-16.7-9.5-33.9-17.2-51.8-23.2l-14.2,1.8l-33.9-23.2l-60.6-5.3l-39.2,17.9
		c4.8,13.2,10.8,22.7,17.9,28.6l21.5,23.2c0,24.8-1.8,40.4-5.3,46.3l-23.2,32.1l-7.1,23.2l-39.2,30.3l-57.1,62.4l-26.5,13.3
		l-9.3-17.5l17.9-23.2c8.4-10.9,15.5-18,21.5-21.5l10.6-37.4c3.6-14.2,0-26.1-10.6-35.7c-2.5-10.8-0.7-18.4,5.3-23.2
		c5.9-4.8,10.7-11.4,14.2-19.7c3.6-7.2,4.1-12.6,1.8-16.1c-3.5-3.5-0.7-11.3,8.9-23.2v-78.6l-7.1-5.3c3.5-9.6,7.6-18.5,12.4-26.8
		c3.6-8.3,8.2-16.1,14.2-23.2l-14.2-16.1c-8.3-2.3-19-4.6-32.1-7.1c-14.2-2.3-25-1.7-32.1,1.8l-12.4-12.4c-7.1,0-11.9,1.2-14.2,3.5
		c-3.5,3.6-7.1,8.3-10.6,14.2c-6-6-12.6-11.3-19.7-16.1c-7.1-4.6-15.4-8.9-25-12.4h-14.2c-6-4.7-11.3-10.1-16.1-16.1
		c-6-5.9-13.6-10.7-23.2-14.2l-37.2-1.1l-19.7,14.2l35.7,58.9c3.6,9.6,6.4,19,8.9,28.6c1.1,10.8,4.1,18.4,8.9,23.2l42.8,157
		l-5.3,46.3l0.2,0.8c-6.9,2.2-14,4.2-21.4,5.8c-10.7,2.4-19.7,7.8-26.8,16.1c-23.8,9.5-39.2,10.6-46.3,3.5
		c-8.4-5.8-18-9.9-28.6-12.4l-30.3,1.8l-7.1-14.2c-6-3.6-16.1-6.4-30.3-8.9l-32.1-1.8l-19.7-12.4h-37.4l-17.9-16.5
		c-9.6,16.7-10.1,25-1.8,25c7.1,1.2,11.7,1.2,14.2,0l23.2,62.4l133.8,89.2c14.2,9.6,25.6,11.9,33.9,7.1c8.3-4.7,16.7-12.6,25-23.2
		l16.1-10.6l5.3-21.5l14.2-3.5l23.2-37.4l19.1-12.8l3.9,17v50c0,16.6,1,33.3,3.5,50l-3.5,37.4c2.3,11.9,5.8,25,10.6,39.2
		c3.6,15.4-1.9,27.8-16.1,37.4h-14.2l-46.3,19.7l-16.1-1.8l-114.3,28.6l-91,5.3l-16.1,8.9l-14.2-5.3l-28.6,46.3l-5.3-17.9l-28.6-3.5
		c-11.8,0-22,2.3-30.3,7.1l35.7,30.3l21.5-8.9l30.3,32.1c15.4,8.3,35.1,13.8,58.9,16.1c22.8,2.5,41.2-0.6,55.4-8.9l23.2-16.1
		l53.6-12.4c15.4-4.8,39.8-10.8,73.1-17.9s54.6-8.8,64.2-5.3c1.1,19,3.6,44,7.1,74.9c3.6,32.1,1.8,55.9-5.3,71.3
		c-4.8,7.1-15.4,11.9-32.1,14.2l-41,8.9l-91,30.3l-85.7,8.9l-37.4,17.9l-99.9,17.9c-25,4.8-44.7,10.8-58.9,17.9
		c-7.1,4.7-14.9,6-23.2,3.5c-8.4-2.3-15.6,3.7-21.5,17.9l-10.6-16.1c-10.8-1.3-17.4,0.5-19.7,5.3c-3.6,5.8-8.3,9.4-14.2,10.6
		l-21.5-7.1l-14.2,12.4l-121.3,8.9c-13.2,2.5-25.1,1.3-35.7-3.5c-11.9-3.5-23.3-1.2-33.9,7.1l-7.1-7.1l-42.8,8.9l17.9,16.1
		c9.6,15.4,17.9,25.5,25,30.3l28.6,25l12.4,23.2l53.6,21.5l10.6,21.5c15.7,8.3,31.6,9.5,48.3,3.5c16.5-6,30.9-13.6,42.8-23.2h16.1
		l26.8-23.2l83.9-17.9l21.5-19.7l23.2,5.3l26.8-17.9l16.1,3.5c13.1-3.5,21.5-5.3,25-5.3l21.5-3.5l114.3-35.7l130.2-33.9l26.8-3.5
		c8.3-1.1,14.9-4.1,19.7-8.9l26.8,10.6c3.5,7.3,4.7,13.8,3.5,19.7c-2.5,7.1-8.3,9.6-17.9,7.1l12.4,21.5l-5.3,183.8l7.1,83.9
		c0,53.6,0.6,107,1.8,160.6c1.1,54.7,5.9,108.3,14.2,160.6c2.3,20.2,4.1,40.9,5.3,62.4c0,22.5,4.6,42.2,14.2,58.9
		c15.5,10.6,22.7,13,21.5,7.1c-1.2-6-0.7-11.3,1.8-16.1l23.2-8.9l5.3-35.7l14.2-30.3l8.9-91l8.9-30.3l-7.1-16.1l7.1-30.3l-1.8-46.3
		l7.1-30.3l-12.4-53.6l10.6-46.3c-3.6-6.1-5.9-13.2-7.1-21.5c-2.3-8.4-3.5-18-3.5-28.6l7.1-60.7l-8.9-62.4l1.8-23.2
		c1.1-9.6,3.6-18.5,7.1-26.8c2.5-8.3-0.6-17.2-8.9-26.8c2.3-10.6,3-23.2,1.8-37.4c-1.3-14.2,2.8-26.1,12.4-35.7
		c2.3-7.2,3.5-12.6,3.5-16.1c0-2.3-3.5-5.4-10.6-8.9c8.3-15.4,13.6-21.4,16.1-17.9c2.3,4.8,6.4,5.3,12.4,1.8l8.9-14.2
		c10.8-3.6,19-4.1,25-1.8c4.8,3.7,11.4-0.5,19.7-12.4l5.3,8.9c22.5,3.6,45.7,2.5,69.5-3.5l64.2-14.2l176.7,7.1
		c14.2,2.5,29.1,2.5,44.5,0c14.2-1.1,27.3-3.6,39.2-7.1l16.1,7.1h37.4l99.9,12.4l23.2-5.3l14.2,8.9l21.5-16.1l1.8,17.9l28.6-16.1
		c2.3-10.6,1.7-23.2-1.8-37.4C3278.9,1679.4,3270,1670,3256.9,1664z M2555.5,1014.1l3.5-12.4l1.8,10.6L2555.5,1014.1z M2576.9,894.5
		l8.9,19.7l-17.9,10.6l-5.2-17.9L2576.9,894.5z M2559,887.4v12.4l-3.3,1.1L2559,887.4z M2555.3,901.1l-1.6,0.5l-3.5-14.2
		L2555.3,901.1z M2537.5,930.1l28.6,28.6l-5.3,1.8c-3.6-5.9-8.4-10.6-14.4-14.3C2539.3,942.5,2536.3,937.2,2537.5,930.1z
		 M2519.8,926.6v-12.4l7.1,10.6L2519.8,926.6z M2523.1,899.8h-8.9l-5.3-12.4L2523.1,899.8z M2159.9,1167.8v-14.2l5.3,8.9
		L2159.9,1167.8z M2186.5,1162.5l-5.3-8.9l23.2,7.1L2186.5,1162.5z M1809.4,1947.4l-3.5-16.1l16.1,12.4L1809.4,1947.4z
		 M2496.6,2537.9l-7.1-12.4l12.4,10.6L2496.6,2537.9z M2509,2525.4v-14.2l5.3,8.9L2509,2525.4z M3249.5,1685.2l-8.9-16.1l14.2,12.4
		L3249.5,1685.2z"/>
	
		<linearGradient id="SVGID_00000042722411710420551830000012741180880429026696_" gradientUnits="userSpaceOnUse" x1="4236.5244" y1="670.89" x2="4236.5244" y2="2065.8" gradientTransform="matrix(1 0 0 -1 0 3062)">
		<stop  offset="0" style="stop-color:#FFFFFF;stop-opacity:0"/>
		<stop  offset="7.541899e-02" style="stop-color:#FFFFFF;stop-opacity:0"/>
		<stop  offset="0.6229" style="stop-color:#FFFFFF"/>
		<stop  offset="1" style="stop-color:#FFFFFF"/>
	</linearGradient>
	<path style="fill:url(#SVGID_00000042722411710420551830000012741180880429026696_);" d="M5079.4,2273.7c-6-1.3-12-1.8-17.9-1.8
		c-7.3,0-13.1,1-17.9,3.5l-25-32.1l-221.2-5.3c-36.9-11.9-73.8-24.3-110.7-37.4c-38.2-11.9-75.6-26.6-112.5-44.5l-116-83.9
		l-21.5-28.6l-7.1,3.5l-16.1-32.1l-83.9-62.4l-14.2-39.2l-116-155.2l-1.8-14.2l-58.9-82.1V1628l71.3-17.9h61.1l23.2-8.9l46.3,1.8
		c14.2-2.3,29.1-3.5,44.5-3.5s27.8,6.6,37.4,19.7l35.7-8.9l37.4,8.9l39.2-35.7l107-10.6l30.3-33.9l5.3-30.3
		c-1.2-7.3-3.6-13.1-7.1-17.9c-3.7-4.8-9-10.8-16.1-17.9c-19-15.5-38.1-22.7-57.1-21.5c-20.3,2.4-38.7-3-55.4-16.1l-51.8-5.3
		c-20.2,10.6-41.7,21.5-64.2,32.1c-23.8,11.8-48.1,19.7-73.1,23.2l-67.8,10.6c-25,4.8-45.7,13.1-62.4,25l-42.8-1.8l-1.8-39.2
		l-21.5,10.6l-10.6-10.6V1405l10.6-39.2l-25-17.9c1-10.8,4.6-16.7,10.6-17.9c5.8,0,9.9-4.1,12.4-12.4c2.3-10.8,1.7-17.2-1.8-19.7
		c-3.7-2.5,1.1-8.3,14.2-17.9c7.1-14.2,7.1-26.1,0-35.7l-25-26.8l8.9-12.4c11.9-2.3,24.3-5.8,37.4-10.6c11.9-3.6,21.5-2.4,28.6,3.5
		l53.6-5.3l16.1-19.7l30.3-7.1c9.6-2.3,16.7-7.1,21.5-14.2h23.2c7.2,1.2,12.6,3.6,16.1,7.1l23.2-8.9l30.3,1.8l23.2-12.4l76.6-17.9
		l46.3-28.6v-48.3c-9.6-26.1-21.5-40.3-35.7-42.8c-14.3-1.2-33.3-1.2-57.1,0l-30.7-5.5l-228.3,51.8l-53.6,25l-53.6,5.3l-116,32.1
		h-74.9l-16.1,8.9l-130.2,7.1c3.6,10.8,8.2,16.7,14.2,17.9l19.7,5.3l42.8,35.7c22.5,7.1,45.7,11.9,69.5,14.2
		c23.8,2.5,46.3,8.3,67.8,17.9c19,11.9,29.6,25,32.1,39.2c1.2,14.2,7.8,28.6,19.7,42.8l1.8,78.6c-1,9.6-5.3,15.6-12.4,17.9
		c-7.1,3.7-9.6,9.6-7.1,17.9c10.8,26,17.2,41,19.7,44.5c1.2,4.8-1.2,21-7.1,48.3l-3.5,30.3h-30.3l-53.6,14.2
		c-19,4.6-39.2,8.9-60.7,12.4c-21.5,4.7-41.7,10.2-60.7,16.1l-23.2-5.3l-83.9,16.1l-39.2-3.5l-14.2,8.9l-16.1-8.9l-14.2,8.9h-46.3
		l-23.2-5.3l-7.1,7.1c8.4,32.2,26.3,50.6,53.6,55.4c26,6.1,51.6,13.2,76.6,21.5c8.3,3.5,16.7,4.7,25,3.5c7.3,0,13.1,4.1,17.9,12.4
		c25,6.1,48.8,6.6,71.3,1.8c22.6-3.5,45.3-7.6,67.8-12.4l23.2-10.6c19-1.1,34.4-3.6,46.3-7.1c10.6-3.6,20.7-13.2,30.3-28.6
		c9.6-1.2,18.5-1.2,26.8,0c7.3,2.3,13.7,6.5,19.7,12.4c3.5,21.4,3,42.2-1.8,62.4l-16.1,57.1c-13.2,74.9-35.7,136.8-67.8,185.6
		c-32.1,49.8-69,104.1-110.7,162.3l-39.2,30.3l-35.7,37.4l-67.8,41l-23.2,21.5l-76.6,35.7l-107,35.7c-13,4.6-27.4,7.1-42.8,7.1
		c-15.5,1.1-29.1,5.9-41,14.2c-3.5,9.6-4.7,18.5-3.5,26.8c0,8.3,2.9,16.1,8.9,23.2c25,7.1,47.6,6.5,67.8-1.8
		c18.9-8.3,39.9-13.8,62.4-16.1h67.8l46.3-14.2l16.1,3.5l21.5-16.1l32.1,3.5l53.6-21.5l142.8-96.3c21.5-17.7,41.7-41.5,60.7-71.3
		c19.1-29.8,35.8-57.1,50-82.1l32.1-98.1l48.3-116l14.2-67.8c11.9,4.8,20.2,13.1,25,25c3.5,11.8,7.1,22,10.6,30.3l164.1,244.5
		l42.8,44.5l10.6,21.5l30.3,23.2l77.7,101.3l89.2,82.1c15.4,9.4,35.1,12.4,58.9,8.9c23.7-3.5,44.5-7.1,62.4-10.6l30.3-10.6
		l146.4-7.1l67.8-17.9c21.4-2.3,42.2-6.5,62.4-12.4c20.2-5.8,33.9-19,41-39.2c7.3,1.3,13.7,1.8,19.7,1.8c4.6,1.1,8.1,4.1,10.6,8.9
		l17.9-3.5L5079.4,2273.7z"/>
</g>
<g>
	<path class="st5" d="M887.6,2947.1c-3.5,10.8-5.3,23.1-5.3,36.5s1.8,25.7,5.3,36.7c3.5,10.8,10.1,23.1,19.5,36.7
		c0.2,0.2,0.2,0.4,0.2,0.5c0,0.4-0.2,0.5-0.5,0.7l-3.2,2.5c-0.2,0.2-0.4,0.4-0.7,0.4c-0.2,0-0.5-0.2-0.7-0.4
		c-22.2-22-33.2-47.9-33.2-77.4s11-55.2,33.2-77.4c0.2-0.2,0.4-0.4,0.7-0.4c0.2,0,0.5,0.2,0.9,0.4l3.2,2.7c0.2,0.2,0.4,0.4,0.4,0.7
		c0,0.2,0,0.5-0.2,0.7C897.7,2924.1,891.1,2936.3,887.6,2947.1z"/>
	<path class="st5" d="M845.4,2947.1c-3.5,10.8-5.3,23.1-5.3,36.5s1.8,25.7,5.3,36.7c3.5,10.8,10.1,23.1,19.5,36.7
		c0.2,0.2,0.2,0.4,0.2,0.5c0,0.4-0.2,0.5-0.5,0.7l-3.2,2.5c-0.2,0.2-0.4,0.4-0.7,0.4c-0.2,0-0.5-0.2-0.7-0.4
		c-22.2-22-33.2-47.9-33.2-77.4s11-55.2,33.2-77.4c0.2-0.2,0.4-0.4,0.7-0.4c0.2,0,0.5,0.2,0.9,0.4l3.2,2.7c0.2,0.2,0.4,0.4,0.4,0.7
		c0,0.2,0,0.5-0.2,0.7C855.5,2924.1,848.9,2936.3,845.4,2947.1z"/>
	<path class="st5" d="M1380.6,2958.9c-5.9,9-12.2,16.7-18.8,22.9c-0.4,0.4-0.7,0.5-0.9,0.5s-0.5,0-0.7-0.2c-1.4-1.1-2.3-1.6-2.5-1.8
		s-0.2-0.4-0.2-0.5c0-0.2,0-0.5,0.2-0.7c6.7-9.2,13.3-20.6,19.5-33.9c6.2-13.5,11.2-27.1,14.7-41.2c0.2-0.2,0.2-0.4,0.4-0.5
		c0.2-0.2,0.4-0.2,0.5-0.2c0.2,0,0.4,0,0.5,0.2l9.8,5c0.4,0.2,0.5,0.5,0.5,0.9c0,0.2,0,0.2,0,0.4l-11.5,35.7v91.2
		c0,0.4-0.2,0.9-0.7,1.2c-0.4,0.4-1.4,0.9-2.7,1.6c-1.8,1.1-3.5,1.4-5.5,1.4h-1.8c-0.4,0-0.5-0.2-0.7-0.4s-0.4-0.4-0.4-0.7v-80.9
		H1380.6z M1495.2,2940.9c0.4,0,0.5,0.2,0.7,0.4s0.4,0.4,0.4,0.7v4.3c0,0.4-0.2,0.5-0.4,0.7c-0.2,0.2-0.4,0.4-0.7,0.4h-41.3
		c5.3,16.1,14.4,30.7,27.3,43.6c5.7,5.7,11.5,10.5,17.7,14.4c0.4,0.2,0.4,0.4,0.4,0.7s-0.2,0.7-0.4,1.4c-0.2,0.7-0.4,1.1-0.4,1.2
		c-0.2,0.2-0.2,0.2-0.4,0.4c-1.8,0.5-3.4,1.6-4.6,2.8s-2.1,3-2.7,5.3c-0.2,0.2-0.2,0.4-0.4,0.5c-0.2,0.2-0.4,0.2-0.5,0.2
		c-0.2,0-0.5-0.2-0.7-0.4c-9.2-7.5-17.4-17-24.5-28.9c-5.9-10.1-10.6-20.8-14.2-31.9v79.1c0,1.2-1.1,2.3-3.2,3.4
		c-2.8,1.1-4.6,1.4-5.5,1.4h-0.2h-1.8c-0.4,0-0.5-0.2-0.7-0.4s-0.4-0.4-0.4-0.7v-74.2c-9.8,22.2-24,40.4-42.8,54.6
		c-0.2,0.2-0.4,0.2-0.5,0.2s-0.4-0.2-0.7-0.4l-2.1-2c-0.2-0.4-0.4-0.5-0.4-0.7s0.2-0.5,0.5-0.9s0.7-0.9,1.2-1.4
		c17.6-17.6,30.3-40.1,38.1-67.6h-32.1c-0.4,0-0.5,0-0.7-0.2s-0.4-0.4-0.4-0.5c-0.7-3-1.2-4.6-1.2-4.8s0.2-0.4,0.4-0.5
		c0.2-0.2,0.5-0.4,0.7-0.4h39.7v-32.5c0-0.4,0.2-0.5,0.4-0.7c0.2-0.2,0.4-0.4,0.7-0.4h9.6c0.4,0,0.5,0.2,0.7,0.4s0.4,0.4,0.4,0.7
		v32.5h45V2940.9z"/>
	<path class="st5" d="M2000.5,2962.4c-0.4,0-0.5-0.2-0.7-0.4s-0.4-0.4-0.4-0.7v-6.2h-28.6v80.9c0,1.2-0.9,2.3-2.7,3.4
		c-1.8,1.1-3.9,1.6-6,1.6h-1.8c-0.4,0-0.5-0.2-0.7-0.4s-0.4-0.4-0.4-0.7v-125.8c0-0.4,0.2-0.5,0.4-0.7c0.2-0.2,0.5-0.4,0.7-0.4h49.3
		c0.4,0,0.5,0.2,0.7,0.4s0.4,0.4,0.4,0.7v44.2c0,0.4-0.2,0.9-0.7,1.2c-0.4,0.4-1.6,1.1-3.2,1.8c-1.8,0.7-3.4,1.1-5,1.1
		L2000.5,2962.4L2000.5,2962.4z M1999.6,2930.6v-11.2H1971v11.2H1999.6z M1971,2937v11.9h28.6V2937H1971z M2044.7,2970v51.1
		c0,4.6-1.1,7.8-3,9.8c-2,2-5.9,3.4-11.4,3.9c-0.2,0-0.2,0-0.4,0c-0.2,0-0.4-0.2-0.5-0.4c-0.2-0.2-0.4-0.4-0.4-0.5
		c-0.4-2.7-1.1-4.6-2.3-5.7c-2.1-1.4-5.5-2.5-10.1-3c-0.2,0-0.4-0.2-0.5-0.4c-0.2-0.2-0.4-0.5-0.4-0.7v-2.3c0-0.4,0.2-0.5,0.4-0.7
		c0.2-0.2,0.4-0.4,0.5-0.4s2.1,0.2,6.2,0.4c3.9,0.4,6.6,0.5,8,0.5s2.3-0.2,2.5-0.4s0.4-0.7,0.4-1.4v-11.4h-30
		c-2.5,11.2-8,19.9-16.7,25.9c-0.2,0.2-0.4,0.2-0.7,0.2c-0.2,0-0.5-0.2-0.7-0.4l-1.8-1.8c-0.2-0.2-0.4-0.4-0.4-0.7s0.2-0.5,0.4-0.7
		c4.3-5.1,7.1-11,8.5-17.4s2-14,2-22.9v-21.1c0-0.4,0.2-0.5,0.4-0.7c0.2-0.2,0.4-0.4,0.7-0.4h48.3c0.4,0,0.5,0.2,0.7,0.4
		C2044.5,2969.5,2044.7,2969.7,2044.7,2970z M2033.7,3002.3v-10.6h-28.6c0,3.9-0.2,7.5-0.4,10.6H2033.7z M2033.7,2985.3V2975h-28.6
		v10.3H2033.7z M2079.8,2914.1v111.8c0,5.1-1.1,8.9-3.4,11c-2.3,2.3-6.4,3.5-12.4,4.3c-0.2,0-0.2,0-0.4,0s-0.4-0.2-0.5-0.4
		c-0.2-0.2-0.4-0.4-0.4-0.5c-0.5-3.2-1.2-5.5-2.3-6.7c-2.1-1.4-6-2.7-11.4-3.4c-0.2,0-0.4-0.2-0.5-0.4c-0.2-0.2-0.4-0.4-0.4-0.7
		v-2.3c0-0.4,0.2-0.5,0.4-0.7s0.4-0.4,0.5-0.4c0.2,0,2.5,0.2,7.1,0.5s7.6,0.5,9,0.5s2.3-0.2,2.7-0.4c0.2-0.2,0.4-0.9,0.4-1.8V2955
		h-29.8v2.7c0,0.5-0.2,1.1-0.7,1.4c-0.5,0.5-1.6,1.2-3.2,1.8c-1.6,0.5-3.2,0.9-5.1,0.9h-1.4c-0.4,0-0.5-0.2-0.7-0.4
		s-0.4-0.4-0.4-0.7V2914c0-0.4,0.2-0.5,0.4-0.7c0.2-0.2,0.4-0.4,0.7-0.4h51.1c0.4,0,0.5,0.2,0.7,0.4
		C2079.8,2913.6,2079.8,2913.8,2079.8,2914.1z M2068.1,2930.6v-11.2h-29.8v11.2H2068.1z M2038.3,2937v11.9h29.8V2937H2038.3z"/>
	<path class="st5" d="M2674.5,2994.2c0.4,0,0.5,0.2,0.7,0.4s0.4,0.4,0.4,0.7v4.4c0,0.4-0.2,0.5-0.4,0.7s-0.4,0.4-0.7,0.4h-17.7
		l5.1,6.7c0.2,0.2,0.2,0.4,0.2,0.5c0,0.4-0.2,0.7-0.5,0.9c-6.4,3.5-13.3,6.6-20.6,9c10.6,5.1,23.8,8.5,39.6,10.3
		c0.2,0,0.4,0.2,0.5,0.4c0.2,0.2,0.4,0.4,0.4,0.5s0,0.9-0.2,2c0,0.2-0.2,0.4-0.4,0.5c-0.2,0.2-0.4,0.4-0.5,0.4
		c-1.6,0.4-3.2,1.2-4.4,2.3s-2.1,3-2.7,5.5c-0.2,0.2-0.2,0.4-0.4,0.5c-0.2,0.2-0.4,0.2-0.5,0.2c-0.2,0-0.4,0-0.4,0
		c-20.9-4.6-36.5-12.1-46.7-22.4c-5-5-9-10.8-12.2-17.6h-18.6v24.3c12.8-4.6,19.9-7.3,21.3-7.8c1.4-0.5,2.3-0.9,2.5-0.9
		s0.4,0,0.5,0.2c0.2,0.2,0.2,0.4,0.2,0.4c0.7,1.6,1.1,2.7,1.1,2.8c0,0.4-0.2,0.5-0.4,0.7l-30,17.6c-1.1,2-2.3,3.2-3.9,4.1
		c-0.2,0.2-0.4,0.2-0.5,0.2c-0.4,0-0.5-0.2-0.7-0.5l-5.7-11.2c-0.2-0.2-0.2-0.4-0.2-0.5c0-0.4,0.2-0.5,0.5-0.7
		c1.8-1.1,3-1.8,3.5-2.3c0.4-0.5,0.5-1.2,0.5-2.1v-24h-15.4c-3.2,17.4-11.2,30.9-24.3,40.4c-0.2,0.2-0.4,0.2-0.7,0.2
		c-0.2,0-0.5-0.2-0.7-0.4l-1.6-2c-0.2-0.4-0.4-0.5-0.4-0.7s0.2-0.4,0.4-0.7c6.7-7.8,11.4-16.5,13.7-26.1c2.3-9.4,3.5-19.9,3.5-31.2
		v-14.5c0-0.4,0.2-0.5,0.4-0.7s0.4-0.4,0.7-0.4h114.1c0.4,0,0.5,0.2,0.7,0.4s0.4,0.4,0.4,0.7v4.4c0,0.4-0.2,0.5-0.4,0.7
		s-0.4,0.4-0.7,0.4h-103.4v8h89.4c0.4,0,0.5,0.2,0.7,0.4s0.4,0.4,0.4,0.7v4.3c0,0.4-0.2,0.5-0.4,0.7s-0.4,0.4-0.7,0.4h-89.4
		c-0.2,3.4-0.4,6.2-0.5,8.5L2674.5,2994.2L2674.5,2994.2z M2564.3,2962.8h-1.4c-0.4,0-0.5-0.2-0.7-0.4s-0.4-0.5-0.4-0.7v-44
		c0-0.4,0.2-0.5,0.4-0.7s0.4-0.4,0.7-0.4h28.9v-11.9c0-0.4,0.2-0.5,0.4-0.7s0.4-0.4,0.5-0.4c0.2,0,3.4,0.5,9.6,1.4
		c0.2,0,0.4,0.2,0.5,0.4c0.2,0.2,0.4,0.4,0.4,0.7v10.3h17.7v-11.9c0-0.4,0.2-0.5,0.4-0.7s0.4-0.4,0.5-0.4c0.2,0,3.4,0.5,9.6,1.4
		c0.2,0,0.4,0.2,0.5,0.4c0.2,0.2,0.4,0.4,0.4,0.7v10.3h28.4c0.4,0,0.5,0.2,0.7,0.4s0.4,0.4,0.4,0.7v39.6c0,0.4-0.2,0.9-0.7,1.2
		c-0.5,0.4-1.4,0.9-2.8,1.6c0,0.2,0,0.2-0.2,0.2c-2,0.7-3.7,1.1-5.3,1.1h-1.4c-0.4,0-0.5-0.2-0.7-0.4s-0.4-0.4-0.4-0.7v-4.1h-76.8
		v2.5c0,0.5-0.2,0.9-0.7,1.4s-1.2,0.9-2.7,1.4v0.2C2568,2962.4,2566.1,2962.8,2564.3,2962.8z M2591.8,2933v-9.9h-18.6v9.9H2591.8z
		 M2573.2,2949.6h18.6v-10.3h-18.6V2949.6z M2620.9,2933v-9.9h-17.7v9.9H2620.9z M2620.9,2939.5h-17.7v10.3h17.7V2939.5z
		 M2619.3,3000.7c4.1,5.5,9.4,10.3,15.8,14.2c5.9-3.7,12.1-8.3,18.5-14.2H2619.3z M2650,2933v-9.9h-17.9v9.9H2650z M2632.1,2939.5
		v10.3h17.9v-10.3H2632.1z"/>
	<path class="st5" d="M3134.1,3033.9c0-0.2,0-0.2,0-0.4s0-0.4,0.2-0.5c0.2-0.2,0.4-0.2,0.4-0.2c7.5-3.4,15.1-7.8,22.7-13.1
		c7.6-5.5,14.5-11.4,20.4-17.9c0.4-0.2,0.5-0.4,0.7-0.4l0.7,0.4l6.2,8.7c0.2,0.2,0.2,0.4,0.2,0.7c0,0.2-0.2,0.5-0.4,0.7
		c-6.6,6-14.4,11.4-23.2,15.6c-8.9,4.3-17.6,7.6-25.9,9.9c-0.2,0-0.2,0-0.4,0s-0.4,0-0.5-0.2c-0.2-0.2-0.4-0.4-0.4-0.5
		L3134.1,3033.9z M3270.9,2937c0,0.4-0.2,0.5-0.4,0.7s-0.4,0.4-0.7,0.4H3230c2,1.2,2.8,2,3,2.1c0.2,0.2,0.2,0.4,0.2,0.5
		s0,0.5-0.2,0.7c-3.2,5.5-6.9,10.1-11.2,13.8h40.1c0.4,0,0.5,0.2,0.7,0.4s0.4,0.4,0.4,0.7v4.4c0,0.4-0.2,0.5-0.4,0.7
		s-0.4,0.4-0.7,0.4h-53.8v11.7h44.2c0.4,0,0.5,0.2,0.7,0.4s0.4,0.4,0.4,0.7v4.4c0,0.4-0.2,0.5-0.4,0.7s-0.5,0.4-0.7,0.4h-44.2v12.2
		h60c0.4,0,0.5,0.2,0.7,0.4s0.4,0.4,0.4,0.7v4.4c0,0.4-0.2,0.5-0.4,0.7s-0.4,0.4-0.7,0.4h-60v38.7c0,0.7-0.5,1.4-1.4,2
		c-0.7,0.5-1.8,0.9-3.2,1.2c-1.4,0.4-2.8,0.5-4.4,0.5h-1.6c-0.4,0-0.5-0.2-0.7-0.4s-0.4-0.4-0.4-0.7v-41.3h-56.8
		c-0.4,0-0.5,0-0.7-0.2s-0.4-0.4-0.4-0.5c-0.9-3-1.4-4.6-1.4-5c0-0.2,0.2-0.4,0.4-0.5c0.2-0.2,0.4-0.4,0.7-0.4h58.2v-12.2H3154
		c-0.4,0-0.5,0-0.7-0.2s-0.4-0.4-0.4-0.5c-0.7-3-1.2-4.6-1.2-5c0-0.2,0.2-0.4,0.4-0.5c0.2-0.2,0.4-0.4,0.7-0.4h43.6v-11.7h-49.9
		c-0.4,0-0.5,0-0.7-0.2s-0.4-0.4-0.4-0.5c-0.7-3-1.2-4.6-1.2-5c0-0.2,0.2-0.4,0.4-0.5c0.2-0.2,0.5-0.4,0.7-0.4h34.2
		c-0.4-2.5-1.4-5.3-3.2-8.5v-0.2c-2-3.2-3.9-5.9-6.2-7.8c-0.2-0.2-0.4-0.4-0.4-0.7h-32.3c-0.4,0-0.5,0-0.7-0.2s-0.4-0.4-0.4-0.5
		c-0.9-3-1.4-4.6-1.4-5c0-0.2,0.2-0.4,0.4-0.5c0.2-0.2,0.4-0.4,0.7-0.4h49v-26.8c0-0.4,0.2-0.5,0.4-0.7s0.4-0.4,0.5-0.4
		c0.2,0,3.2,0.5,9.4,1.4c0.2,0,0.4,0.2,0.5,0.4c0.2,0.2,0.4,0.4,0.4,0.7v25.4h13.1v-26.8c0-0.4,0.2-0.5,0.4-0.7s0.4-0.4,0.5-0.4
		c0.2,0,3.2,0.5,9.4,1.4c0.2,0,0.4,0.2,0.5,0.4c0.2,0.2,0.4,0.4,0.4,0.7v25.4h4.1c6.4-8.5,11.4-16.7,14.9-24.3
		c0.2-0.4,0.4-0.5,0.7-0.5s0.5,0,0.7,0.2c5.1,3.5,7.8,5.3,8,5.5s0.2,0.4,0.2,0.5c0,0.2,0,0.5-0.2,0.7c-5.1,7.3-10.6,13.1-16.7,18.1
		h37.4c0.4,0,0.5,0.2,0.7,0.4s0.4,0.4,0.4,0.7v4.3L3270.9,2937L3270.9,2937z M3155.1,2907.2c0.2-0.2,0.4-0.2,0.5-0.2s0.4,0,0.4,0
		c10.8,3.7,17.6,8.7,20,15.4c0.5,1.4,0.7,2.8,0.7,4.1c0,2.1-0.7,3.7-2.1,5c-1.1,1.1-2.3,1.4-3.5,1.4s-2.7-0.5-4.1-1.8
		c-0.2-0.2-0.4-0.4-0.4-0.7c-0.5-3.2-2.1-6.7-4.8-10.5c-2.5-3.9-5.3-7.1-8.5-9.9c-0.2-0.4-0.4-0.5-0.4-0.7c0-0.4,0.2-0.5,0.4-0.9
		L3155.1,2907.2z M3190,2951.6c0,1.2-0.4,2.5-0.9,3.5h24c3.4-5.5,6.6-11.2,9.2-17.2h-43.8c1.2,0.5,2.5,1.2,3.7,2.1
		c2.5,1.6,4.3,3.2,5.5,4.8C3189.3,2947.1,3190,2949.5,3190,2951.6z M3214.7,3005c0-0.2,0-0.2,0.2-0.4s0.4-0.2,0.5-0.2s0.4,0,0.4,0
		c25.9,6.4,41.9,13.7,48.4,22c1.6,2.1,2.3,3.9,2.3,5.3c0,1.6-0.5,3-1.8,4.1c-1.2,1.1-2.5,1.4-3.7,1.4s-2.8-0.5-4.4-1.4
		c-0.7-0.4-1.2-0.5-1.6-0.9s-0.7-0.7-1.1-1.1c-8.5-8.5-21.8-17-39.7-25.2c-0.4-0.2-0.5-0.5-0.5-0.9
		C3213.6,3007.6,3214,3006.8,3214.7,3005z"/>
	<path class="st5" d="M3856.7,3025.6c1.2,0.7,2,2,2,3.5c0,1.2-0.5,2.5-1.4,3.4c-2.1,2.1-8.9,3.2-20.6,3.5c-4.4,0.2-9.4,0.4-15.1,0.4
		c-5.7,0.2-12.6,0.2-20.9,0.2h-36.5c-11,0-18.5-1.1-22.5-3.2c-4.3-2.3-6.4-6.7-6.4-13.7v-100.1h-5c-0.4,0-0.5,0-0.7-0.2
		s-0.4-0.4-0.4-0.5c-0.7-3-1.2-4.6-1.2-5c0-0.2,0.2-0.4,0.4-0.5s0.4-0.4,0.7-0.4h125.8c0.4,0,0.5,0.2,0.7,0.4s0.4,0.4,0.4,0.7v4.4
		c0,0.4-0.2,0.5-0.4,0.7s-0.4,0.4-0.7,0.4H3746v98.8c0,3,1.1,5.1,3,6.2c2.3,1.2,6.9,1.8,14,1.8h38.3c18.5,0,30.3-0.2,35.3-0.7
		c0.2,0,0.7,0,2.1,0c1.2,0,2.8-0.4,4.8-0.7c2-0.4,3.2-0.7,3.9-0.9s1.1-0.4,1.2-0.4h1.8h0.2
		C3853.7,3024.1,3855.7,3024.9,3856.7,3025.6z M3786.7,3019c-0.4,0-0.5-0.2-0.7-0.4s-0.4-0.4-0.4-0.7v-5.7h-19.3v5.3
		c0,0.5-0.2,0.9-0.7,1.4s-1.2,0.9-2.3,1.4c-1.8,0.7-3.5,1.2-5.3,1.2h-1.4c-0.4,0-0.5-0.2-0.7-0.4s-0.4-0.4-0.4-0.7V2977
		c0-0.4,0.2-0.5,0.4-0.7s0.4-0.4,0.7-0.4h38.7c0.4,0,0.5,0.2,0.7,0.4s0.4,0.4,0.4,0.7v38.1c0,0.4-0.2,0.9-0.7,1.2
		c-0.4,0.4-1.4,1.1-3.2,1.6c-1.6,0.7-3.2,0.9-4.6,0.9h-1.1L3786.7,3019L3786.7,3019z M3766.3,2982.6v23.4h19.3v-23.4H3766.3z
		 M3783.6,2963.1v3.5c0,0.5-0.2,0.9-0.7,1.4s-1.2,0.9-2.7,1.4v0.2c-2,0.7-3.9,1.1-5.9,1.1h-1.4c-0.4,0-0.5-0.2-0.7-0.4
		s-0.4-0.4-0.4-0.7v-38.1c0-0.4,0.2-0.5,0.4-0.7s0.4-0.4,0.7-0.4h58.2c0.4,0,0.5,0.2,0.7,0.4s0.4,0.4,0.4,0.7v33.4
		c0,1.1-1.2,2-3.5,3c-1.8,0.7-3.5,1.2-5.3,1.2h-1.4c-0.4,0-0.5-0.2-0.7-0.4s-0.4-0.4-0.4-0.7v-4.8L3783.6,2963.1L3783.6,2963.1
		L3783.6,2963.1z M3783.6,2936.9v19.9h37.4v-19.9H3783.6z M3838.3,3018.5h-1.4c-0.4,0-0.5-0.2-0.7-0.4s-0.4-0.4-0.4-0.7v-5h-19.7
		v3.4c0,0.5-0.2,0.9-0.7,1.4c-0.4,0.4-1.2,0.9-2.5,1.4c-2.7,0.7-4.4,1.2-5.1,1.2h-0.2h-1.4c-0.4,0-0.5-0.2-0.7-0.4s-0.4-0.4-0.4-0.7
		v-41.5c0-0.4,0.2-0.5,0.4-0.7s0.4-0.4,0.7-0.4h39.2c0.4,0,0.5,0.2,0.7,0.4s0.4,0.4,0.4,0.7v37.4c0,0.4-0.2,0.9-0.7,1.2
		c-0.5,0.4-1.4,0.9-2.7,1.6C3841.3,3018.1,3839.7,3018.5,3838.3,3018.5z M3816.1,2982.6v23.4h19.7v-23.4H3816.1z"/>
	<path class="st5" d="M4334.9,3020.6c3.5-10.8,5.3-23.1,5.3-36.7c0-13.7-1.8-25.9-5.3-36.7s-10.1-23.1-19.5-36.7
		c-0.2-0.2-0.2-0.4-0.2-0.7c0-0.2,0.2-0.5,0.4-0.7l3.2-2.7c0.4-0.2,0.5-0.4,0.9-0.4c0.2,0,0.5,0.2,0.7,0.4
		c22,22.2,33.2,47.9,33.2,77.4s-11,55.2-33.2,77.4c-0.2,0.2-0.4,0.4-0.7,0.4c-0.2,0-0.5-0.2-0.7-0.4c-2.1-1.6-3.4-2.5-3.4-2.7
		c-0.2-0.2-0.2-0.4-0.2-0.5c0-0.2,0-0.5,0.2-0.7C4324.8,3043.7,4331.3,3031.4,4334.9,3020.6z"/>
	<path class="st5" d="M4373.9,3020.6c3.5-10.8,5.3-23.1,5.3-36.7c0-13.7-1.8-25.9-5.3-36.7s-10.1-23.1-19.5-36.7
		c-0.2-0.2-0.2-0.4-0.2-0.7c0-0.2,0.2-0.5,0.4-0.7l3.2-2.7c0.4-0.2,0.5-0.4,0.9-0.4c0.2,0,0.5,0.2,0.7,0.4
		c22,22.2,33.2,47.9,33.2,77.4s-11,55.2-33.2,77.4c-0.2,0.2-0.4,0.4-0.7,0.4c-0.2,0-0.5-0.2-0.7-0.4c-2.1-1.6-3.4-2.5-3.4-2.7
		c-0.2-0.2-0.2-0.4-0.2-0.5c0-0.2,0-0.5,0.2-0.7C4363.8,3043.7,4370.3,3031.4,4373.9,3020.6z"/>
</g>
<g>
	
		<linearGradient id="SVGID_00000007395598361193818850000012603130102776303515_" gradientUnits="userSpaceOnUse" x1="1720.7502" y1="2892.7" x2="1720.7502" y2="3056.8999" gradientTransform="matrix(1 0 0 -1 0 3062)">
		<stop  offset="0" style="stop-color:#FFFFFF;stop-opacity:0"/>
		<stop  offset="0.5335" style="stop-color:#FFFFFF"/>
		<stop  offset="1" style="stop-color:#FFFFFF"/>
	</linearGradient>
	<path style="fill:url(#SVGID_00000007395598361193818850000012603130102776303515_);" d="M1674.9,37.6c-3.9-5.9-7.5-10.5-10.5-13.8
		c-3-3.4-6.9-6.4-11.7-9.2c-4.8-2.7-10.6-4.1-17.7-4.1V5.3h29.8c7.3,0,13.5,2.3,18.5,7.1s10.5,11.5,16.5,20.2l24.8,37.3l49.9-64.8
		h12.4l-56.1,73.4l39.7,58.5c5.1,7.6,10.6,14,16.5,19.2c5.9,5.1,12.4,7.8,19.5,7.8v5.3h-26.1c-7.1,0-13.5-2.5-19-7.6
		s-10.8-11.7-16-19.9L1715.7,97l-56.1,72.2h-12.4l62.3-80.9L1674.9,37.6z"/>
	
		<linearGradient id="SVGID_00000114789027677961521450000007797083671780262048_" gradientUnits="userSpaceOnUse" x1="1860.3501" y1="2892.3999" x2="1860.3501" y2="3056.7" gradientTransform="matrix(1 0 0 -1 0 3062)">
		<stop  offset="0" style="stop-color:#FFFFFF;stop-opacity:0"/>
		<stop  offset="0.5335" style="stop-color:#FFFFFF"/>
		<stop  offset="1" style="stop-color:#FFFFFF"/>
	</linearGradient>
	<path style="fill:url(#SVGID_00000114789027677961521450000007797083671780262048_);" d="M1846.5,167.3c-3-1.6-5.3-4.4-6.6-8.5
		c-1.4-4.1-2-10.5-2-19V5.3h22.4v134.5c0,8.5,1.2,14.7,3.5,18.8s6.9,6,14,6h5v5h-22.4C1854.1,169.6,1849.5,168.7,1846.5,167.3z"/>
	
		<linearGradient id="SVGID_00000013906587289524827230000007946912292031244440_" gradientUnits="userSpaceOnUse" x1="1982.55" y1="2892.3" x2="1982.55" y2="3057.8999" gradientTransform="matrix(1 0 0 -1 0 3062)">
		<stop  offset="0" style="stop-color:#FFFFFF;stop-opacity:0"/>
		<stop  offset="0.5335" style="stop-color:#FFFFFF"/>
		<stop  offset="1" style="stop-color:#FFFFFF"/>
	</linearGradient>
	<path style="fill:url(#SVGID_00000013906587289524827230000007946912292031244440_);" d="M2028.5,163.6c-7.8-3.9-14-12.4-18.6-25.2
		l-6.2-17.4H1934l-19.9,48.6h-11.2l69.7-165.5h7.5l54.8,134.5c4.1,9.6,8,16.1,11.7,19.9c3.7,3.5,8.9,5.7,15.6,6.2v5
		c-3,0-6.4,0-9.9,0C2044.3,169.6,2036.3,167.7,2028.5,163.6z M1998.7,111.1l-29.8-72.2l-31,72.2H1998.7z"/>
	
		<linearGradient id="SVGID_00000033329208103044518900000003455938421855101361_" gradientUnits="userSpaceOnUse" x1="2152.8999" y1="2887.3999" x2="2152.8999" y2="3062" gradientTransform="matrix(1 0 0 -1 0 3062)">
		<stop  offset="0" style="stop-color:#FFFFFF;stop-opacity:0"/>
		<stop  offset="0.5335" style="stop-color:#FFFFFF"/>
		<stop  offset="1" style="stop-color:#FFFFFF"/>
	</linearGradient>
	<path style="fill:url(#SVGID_00000033329208103044518900000003455938421855101361_);" d="M2112.3,163c-11.7-7.6-20.8-18.1-27-31.4
		c-6.4-13.3-9.4-28-9.4-44.4s3.2-31,9.4-44.4c6.4-13.3,15.3-23.8,27-31.4C2124,3.9,2137.5,0,2152.9,0s28.9,3.9,40.6,11.5
		c11.7,7.6,20.8,18.1,27,31.4c6.4,13.3,9.4,28,9.4,44.4s-3.2,31-9.4,44.4c-6.4,13.3-15.3,23.8-27,31.4
		c-11.7,7.6-25.2,11.5-40.6,11.5S2124,170.7,2112.3,163z M2180.9,155.1c7.8-6.4,13.8-15.3,18.1-26.8c4.1-11.5,6.2-25.2,6.2-41
		s-2.1-29.5-6.2-41s-10.1-20.4-18.1-26.8c-7.8-6.4-17.2-9.4-28-9.4s-20,3.2-28,9.4c-7.8,6.4-13.8,15.3-18.1,26.8
		c-4.1,11.5-6.2,25.2-6.2,41s2.1,29.5,6.2,41c4.1,11.5,10.1,20.4,18.1,26.8c7.8,6.4,17.2,9.4,28,9.4
		C2163.7,164.6,2173.1,161.4,2180.9,155.1z"/>
	
		<linearGradient id="SVGID_00000120555835628433746420000016154927553760248962_" gradientUnits="userSpaceOnUse" x1="2326.3999" y1="2892.6001" x2="2326.3999" y2="3056.7" gradientTransform="matrix(1 0 0 -1 0 3062)">
		<stop  offset="0" style="stop-color:#FFFFFF;stop-opacity:0"/>
		<stop  offset="0.5335" style="stop-color:#FFFFFF"/>
		<stop  offset="1" style="stop-color:#FFFFFF"/>
	</linearGradient>
	<path style="fill:url(#SVGID_00000120555835628433746420000016154927553760248962_);" d="M2275.1,16.3c-2.3-4.1-6.9-6-14-6h-5v-5
		h64.8c18.1,0,33.9,3,47.2,9s20,17.6,20,34.6c0,7.8-2.7,14.9-8,21.1c-5.3,6.4-13.5,11.4-24.3,14.9c15.3,2.5,25.9,7.1,31.9,13.5
		c6,6.6,9,15.3,9,26.3c0,16.7-6.6,28.4-19.9,34.9c-13.1,6.6-29.5,9.8-48.6,9.8h-49.9V34.9C2278.7,26.8,2277.6,20.4,2275.1,16.3z
		 M2344,77.4c6-2.5,11-6.4,14.7-11.5c3.9-5.1,5.7-11.2,5.7-18.3c0-7.5-2.3-13.7-6.7-18.8s-10.1-8.9-17-11.2
		c-6.9-2.5-13.8-3.5-21.1-3.5c-5.9,0-12.1,0.9-18.6,2.5v64.8h23.6C2331.5,81.3,2337.9,80,2344,77.4z M2359.8,151.9
		c8.2-6,12.2-14.5,12.2-25.9s-4.1-19.9-12.1-25.9s-19.9-9-35.3-9H2301v66.2c8,2.3,15.8,3.5,23.6,3.5
		C2339.9,160.9,2351.4,157.9,2359.8,151.9z"/>
	
		<linearGradient id="SVGID_00000128446488029505289560000006051832287863651489_" gradientUnits="userSpaceOnUse" x1="2503.25" y1="2892.3" x2="2503.25" y2="3057.8999" gradientTransform="matrix(1 0 0 -1 0 3062)">
		<stop  offset="0" style="stop-color:#FFFFFF;stop-opacity:0"/>
		<stop  offset="0.5335" style="stop-color:#FFFFFF"/>
		<stop  offset="1" style="stop-color:#FFFFFF"/>
	</linearGradient>
	<path style="fill:url(#SVGID_00000128446488029505289560000006051832287863651489_);" d="M2549.2,163.6c-7.8-3.9-14-12.4-18.6-25.2
		l-6.2-17.4h-69.7l-19.9,48.6h-11.2l69.7-165.5h7.5l54.8,134.5c4.1,9.6,8,16.1,11.7,19.9c3.7,3.5,8.9,5.7,15.6,6.2v5
		c-3,0-6.4,0-9.9,0C2564.8,169.6,2557,167.7,2549.2,163.6z M2519.4,111.1l-29.8-72.2l-31,72.2H2519.4z"/>
	
		<linearGradient id="SVGID_00000099622260453590486500000014684057855741297303_" gradientUnits="userSpaceOnUse" x1="2664.3" y1="2889.8999" x2="2664.3" y2="3056.8" gradientTransform="matrix(1 0 0 -1 0 3062)">
		<stop  offset="0" style="stop-color:#FFFFFF;stop-opacity:0"/>
		<stop  offset="0.5335" style="stop-color:#FFFFFF"/>
		<stop  offset="1" style="stop-color:#FFFFFF"/>
	</linearGradient>
	<path style="fill:url(#SVGID_00000099622260453590486500000014684057855741297303_);" d="M2625.9,169.6h-9.9V35.1
		c0-8-1.8-14-5.1-18.5c-3.4-4.3-9.2-6.4-17.4-6.4h-2.5v-5h16.1c7.6,0,14,1.2,19.3,3.7s10.1,6.2,14.2,11.2l87.1,108.2V5.3h9.9v166.8
		h-5l-107-133.2v130.8h0.3L2625.9,169.6L2625.9,169.6z"/>
	
		<linearGradient id="SVGID_00000144334519865805404040000007920438172632757688_" gradientUnits="userSpaceOnUse" x1="2845.2998" y1="2892.5" x2="2845.2998" y2="3056.7" gradientTransform="matrix(1 0 0 -1 0 3062)">
		<stop  offset="0" style="stop-color:#FFFFFF;stop-opacity:0"/>
		<stop  offset="0.5335" style="stop-color:#FFFFFF"/>
		<stop  offset="1" style="stop-color:#FFFFFF"/>
	</linearGradient>
	<path style="fill:url(#SVGID_00000144334519865805404040000007920438172632757688_);" d="M2812.9,15.3c-20.8,0-31,9.6-31,28.6h-5
		V25.2c0-13.3,7.1-19.9,21.1-19.9h115.7v9.9h-56.1v154.3h-22.4V15.3H2812.9L2812.9,15.3z"/>
	
		<linearGradient id="SVGID_00000134968093251444981370000014477077367526445731_" gradientUnits="userSpaceOnUse" x1="2973.6499" y1="2892.3999" x2="2973.6499" y2="3056.7" gradientTransform="matrix(1 0 0 -1 0 3062)">
		<stop  offset="0" style="stop-color:#FFFFFF;stop-opacity:0"/>
		<stop  offset="0.5335" style="stop-color:#FFFFFF"/>
		<stop  offset="1" style="stop-color:#FFFFFF"/>
	</linearGradient>
	<path style="fill:url(#SVGID_00000134968093251444981370000014477077367526445731_);" d="M2959.8,167.3c-3-1.6-5.3-4.4-6.6-8.5
		c-1.4-4.1-2-10.5-2-19V5.3h22.4v134.5c0,8.5,1.2,14.7,3.5,18.8s6.9,6,14,6h5v5h-22.4C2967.4,169.6,2962.8,168.7,2959.8,167.3z"/>
	
		<linearGradient id="SVGID_00000172419299844632032770000011287350416225440947_" gradientUnits="userSpaceOnUse" x1="3095.8501" y1="2892.3" x2="3095.8501" y2="3057.8999" gradientTransform="matrix(1 0 0 -1 0 3062)">
		<stop  offset="0" style="stop-color:#FFFFFF;stop-opacity:0"/>
		<stop  offset="0.5335" style="stop-color:#FFFFFF"/>
		<stop  offset="1" style="stop-color:#FFFFFF"/>
	</linearGradient>
	<path style="fill:url(#SVGID_00000172419299844632032770000011287350416225440947_);" d="M3141.8,163.6c-7.8-3.9-14-12.4-18.6-25.2
		L3117,121h-69.7l-19.9,48.6h-11.2l69.7-165.5h7.5l54.8,134.5c4.1,9.6,8,16.1,11.7,19.9c3.7,3.5,8.9,5.7,15.6,6.2v5
		c-3,0-6.4,0-9.9,0C3157.6,169.6,3149.6,167.7,3141.8,163.6z M3112,111.1l-29.8-72.2l-31,72.2H3112z"/>
	
		<linearGradient id="SVGID_00000003065977448708937650000010131196435053777545_" gradientUnits="userSpaceOnUse" x1="3256.8" y1="2889.8999" x2="3256.8" y2="3056.8" gradientTransform="matrix(1 0 0 -1 0 3062)">
		<stop  offset="0" style="stop-color:#FFFFFF;stop-opacity:0"/>
		<stop  offset="0.5335" style="stop-color:#FFFFFF"/>
		<stop  offset="1" style="stop-color:#FFFFFF"/>
	</linearGradient>
	<path style="fill:url(#SVGID_00000003065977448708937650000010131196435053777545_);" d="M3218.4,169.6h-9.9V35.1
		c0-8-1.8-14-5.1-18.5c-3.4-4.3-9.2-6.4-17.4-6.4h-2.5v-5h16.1c7.6,0,14,1.2,19.3,3.7s10.1,6.2,14.2,11.2l87.1,108.2V5.3h9.9v166.8
		h-5l-107-133.2v130.8h0.3L3218.4,169.6L3218.4,169.6z"/>
	
		<linearGradient id="SVGID_00000107577468315484557430000010245980773110233502_" gradientUnits="userSpaceOnUse" x1="1427.1001" y1="2701.8" x2="1427.1001" y2="2806.7" gradientTransform="matrix(1 0 0 -1 0 3062)">
		<stop  offset="0" style="stop-color:#FFFFFF;stop-opacity:0"/>
		<stop  offset="0.5335" style="stop-color:#FFFFFF"/>
		<stop  offset="1" style="stop-color:#FFFFFF"/>
	</linearGradient>
	<path style="fill:url(#SVGID_00000107577468315484557430000010245980773110233502_);" d="M1396.6,262.4c-1.4-2.7-4.4-3.9-8.9-3.9
		h-3.2v-3.2h14.4c3.9,0,6.9,0.5,8.9,1.6c2,1.1,3.4,2.8,4.3,5.5s1.2,6.7,1.2,12.1v79.3h56.4v6.4h-70.6v-85.7
		C1398.7,269,1398,264.9,1396.6,262.4z"/>
	
		<linearGradient id="SVGID_00000183238276766775511070000013240913068399162552_" gradientUnits="userSpaceOnUse" x1="1521.3" y1="2701.8" x2="1521.3" y2="2806.7" gradientTransform="matrix(1 0 0 -1 0 3062)">
		<stop  offset="0" style="stop-color:#FFFFFF;stop-opacity:0"/>
		<stop  offset="0.5335" style="stop-color:#FFFFFF"/>
		<stop  offset="1" style="stop-color:#FFFFFF"/>
	</linearGradient>
	<path style="fill:url(#SVGID_00000183238276766775511070000013240913068399162552_);" d="M1490.1,262.4c-1.4-2.7-4.4-3.9-8.9-3.9
		h-3.2v-3.2h67.6c9,0,13.5,4.3,13.5,12.8V280h-3.2c0-12.2-6.6-18.3-19.9-18.3h-29.5V303h42.9v6.4h-42.9v44.4h27.9
		c7.3,0,13-1.2,17.2-3.9c4.1-2.7,7.5-7.1,9.8-13.5l3.2,0.7l-5.5,15.1c-2,5.3-5.9,8-11.9,8h-54.8v-85.7
		C1492.2,269,1491.5,264.9,1490.1,262.4z"/>
	
		<linearGradient id="SVGID_00000175323725166318236010000014714297580963520699_" gradientUnits="userSpaceOnUse" x1="1605.4" y1="2701.8" x2="1605.4" y2="2806.8" gradientTransform="matrix(1 0 0 -1 0 3062)">
		<stop  offset="0" style="stop-color:#FFFFFF;stop-opacity:0"/>
		<stop  offset="0.5335" style="stop-color:#FFFFFF"/>
		<stop  offset="1" style="stop-color:#FFFFFF"/>
	</linearGradient>
	<path style="fill:url(#SVGID_00000175323725166318236010000014714297580963520699_);" d="M1596.5,358.5c-2-1.1-3.4-2.8-4.3-5.5
		s-1.2-6.7-1.2-12.1v-85.7h14.4V341c0,5.3,0.7,9.4,2.3,12.1c1.4,2.7,4.4,3.9,8.9,3.9h3.2v3.2h-14.4
		C1601.5,360.1,1598.7,359.6,1596.5,358.5z"/>
	
		<linearGradient id="SVGID_00000056414322850479979490000005436189137217802671_" gradientUnits="userSpaceOnUse" x1="1673.2998" y1="2700.3" x2="1673.2998" y2="2810.5" gradientTransform="matrix(1 0 0 -1 0 3062)">
		<stop  offset="0" style="stop-color:#FFFFFF;stop-opacity:0"/>
		<stop  offset="0.5335" style="stop-color:#FFFFFF"/>
		<stop  offset="1" style="stop-color:#FFFFFF"/>
	</linearGradient>
	<path style="fill:url(#SVGID_00000056414322850479979490000005436189137217802671_);" d="M1657.7,359.8c-5.7-1.2-10.1-3.4-13.7-6.2
		c-3.5-3-5.3-6.4-5.3-10.1v-18.1h2.8c1.8,11.4,5.3,19.2,10.5,23.4c5.1,4.3,12.2,6.6,21.5,6.6c5.7,0,10.6-1.2,14.7-3.7s6-6.2,6-11.4
		c0-4.4-1.4-8.3-4.1-11.5c-2.8-3.2-7.3-6.7-13.3-10.3l-19.5-11.5c-6.7-4.1-11.5-8.2-14.4-12.2c-2.8-4.1-4.3-9.2-4.3-15.1
		c0-8.2,2.8-14.9,8.5-20.2c5.7-5.3,13.1-8,22.4-8c5.3,0,10.8,0.9,16,2.8c5.3,2,9.6,4.3,13.1,7.3c3.4,2.8,5.1,6.2,5.1,10.1v15.8h-2.8
		c-1.8-9.8-5.1-17.2-10.3-22.2c-5-5-12.1-7.5-21.1-7.5c-4.8,0-9.2,1.6-12.8,5c-3.7,3.4-5.5,7.5-5.5,12.1c0,4.3,1.4,8,4.1,10.8
		s7.3,6.2,13.5,9.9l19.5,11.5c7.3,4.3,12.2,8.3,15.3,12.1c3,3.7,4.4,8.3,4.4,14.2c0,8.9-3,15.8-8.9,20.8s-14,7.5-24.1,7.5
		C1669.1,361.7,1663.4,361,1657.7,359.8z"/>
	
		<linearGradient id="SVGID_00000044154926318244943300000007712382333166695339_" gradientUnits="userSpaceOnUse" x1="1771.9501" y1="2700.5662" x2="1771.9501" y2="2807" gradientTransform="matrix(1 0 0 -1 0 3062)">
		<stop  offset="0" style="stop-color:#FFFFFF;stop-opacity:0"/>
		<stop  offset="0.5335" style="stop-color:#FFFFFF"/>
		<stop  offset="1" style="stop-color:#FFFFFF"/>
	</linearGradient>
	<path style="fill:url(#SVGID_00000044154926318244943300000007712382333166695339_);" d="M1754.8,356.4
		c-5.9-3.4-10.1-8.5-12.6-15.3c-2.5-6.7-3.7-15.6-3.7-26.4v-40.4c0-5.3-0.7-9.4-2.3-12.1c-1.4-2.7-4.4-3.9-8.9-3.9h-3.2v-3.2h14.4
		c3.9,0,6.9,0.5,8.9,1.6c2,1.1,3.4,2.8,4.3,5.5s1.2,6.7,1.2,12.1v45.2c0,11.7,2.1,20.6,6.6,26.6c4.3,6,11.5,9,21.6,9
		c8,0,14.4-1.4,19.2-4.3c4.8-2.8,8-7.3,10.1-13c2-5.9,3-13.5,3-23.2V255h6.4v59.6c0,11-1.2,19.9-3.5,26.6s-6.4,11.7-12.2,15.1
		c-5.9,3.4-14,5.1-24.7,5.1C1768.8,361.7,1760.6,360,1754.8,356.4z"/>
	
		<linearGradient id="SVGID_00000062188667887680457660000002940028287837123766_" gradientUnits="userSpaceOnUse" x1="1888.95" y1="2700.2" x2="1888.95" y2="2806.8999" gradientTransform="matrix(1 0 0 -1 0 3062)">
		<stop  offset="0" style="stop-color:#FFFFFF;stop-opacity:0"/>
		<stop  offset="0.5335" style="stop-color:#FFFFFF"/>
		<stop  offset="1" style="stop-color:#FFFFFF"/>
	</linearGradient>
	<path style="fill:url(#SVGID_00000062188667887680457660000002940028287837123766_);" d="M1911.8,356.6c-4.3-3.4-8.9-9.4-13.8-18.1
		l-15.8-27H1871V360h-14.4v-85.7c0-5.3-0.7-9.4-2.3-12.1c-1.4-2.7-4.4-3.9-8.9-3.9h-3.2v-3.2h41.3c10.1,0,19.2,2,27.3,6
		c8.2,3.9,12.2,11.5,12.2,22.7c0,14-8.5,23.1-25.4,27l16.7,27.9c3.9,6.6,7.5,11.2,10.6,13.7c3.2,2.7,6.7,4.1,10.8,4.6v3.2
		c-0.9,0.4-2.3,0.7-4.1,1.1c-1.8,0.4-3.5,0.5-5.5,0.5C1920.8,361.7,1915.9,360,1911.8,356.6z M1893.5,303.7c3.9-1.6,7.1-4.1,9.8-7.5
		s4.1-7.5,4.1-12.4c0-5.1-1.4-9.6-4.1-13s-6-6-9.8-7.6c-3.9-1.6-7.5-2.5-10.6-2.5c-3.7,0-7.6,0.5-11.9,1.6v42
		c4.3,1.1,8.2,1.6,11.9,1.6C1886.1,306,1889.6,305.3,1893.5,303.7z"/>
	
		<linearGradient id="SVGID_00000051363789329233137810000010892946664276251568_" gradientUnits="userSpaceOnUse" x1="1987.8999" y1="2701.8" x2="1987.8999" y2="2806.7" gradientTransform="matrix(1 0 0 -1 0 3062)">
		<stop  offset="0" style="stop-color:#FFFFFF;stop-opacity:0"/>
		<stop  offset="0.5335" style="stop-color:#FFFFFF"/>
		<stop  offset="1" style="stop-color:#FFFFFF"/>
	</linearGradient>
	<path style="fill:url(#SVGID_00000051363789329233137810000010892946664276251568_);" d="M1956.7,262.4c-1.4-2.7-4.4-3.9-8.9-3.9
		h-3.2v-3.2h67.6c9,0,13.5,4.3,13.5,12.8V280h-3.2c0-12.2-6.6-18.3-19.9-18.3h-29.5V303h42.9v6.4h-42.9v44.4h27.9
		c7.3,0,13-1.2,17.2-3.9c4.1-2.7,7.5-7.1,9.8-13.5l3.2,0.7l-5.5,15.1c-2,5.3-5.9,8-11.9,8H1959v-85.7
		C1959,269,1958.3,264.9,1956.7,262.4z"/>
	
		<linearGradient id="SVGID_00000183239709408329606310000015608546232053412287_" gradientUnits="userSpaceOnUse" x1="2145.7002" y1="2701.9949" x2="2145.7002" y2="2807.6001" gradientTransform="matrix(1 0 0 -1 0 3062)">
		<stop  offset="0" style="stop-color:#FFFFFF;stop-opacity:0"/>
		<stop  offset="0.5335" style="stop-color:#FFFFFF"/>
		<stop  offset="1" style="stop-color:#FFFFFF"/>
	</linearGradient>
	<path style="fill:url(#SVGID_00000183239709408329606310000015608546232053412287_);" d="M2175.1,356.2c-5-2.5-8.9-7.8-11.9-16
		l-3.9-11.2h-44.5l-12.8,31h-7.1l44.5-105.6h4.8l34.9,85.7c2.7,6.2,5.1,10.3,7.5,12.6c2.3,2.3,5.7,3.5,9.9,4.1v3.2c-2,0-4.1,0-6.4,0
		C2185,360.1,2180,358.7,2175.1,356.2z M2155.9,322.7l-19-45.9l-19.9,45.9H2155.9z"/>
	
		<linearGradient id="SVGID_00000114777251921839250100000018127149838318984085_" gradientUnits="userSpaceOnUse" x1="2257.2002" y1="2698.8972" x2="2257.2002" y2="2809.7" gradientTransform="matrix(1 0 0 -1 0 3062)">
		<stop  offset="0" style="stop-color:#FFFFFF;stop-opacity:0"/>
		<stop  offset="0.5335" style="stop-color:#FFFFFF"/>
		<stop  offset="1" style="stop-color:#FFFFFF"/>
	</linearGradient>
	<path style="fill:url(#SVGID_00000114777251921839250100000018127149838318984085_);" d="M2231,355.7c-8.2-5.1-14.5-12.1-19.2-20.8
		c-4.6-8.7-6.9-18.3-6.9-28.7c0-10.1,2-19.2,6-27.3c4.1-8.2,9.8-14.7,17.2-19.5c7.5-4.8,16.1-7.1,25.9-7.1c9,0,17,1.2,23.6,3.5
		c6.6,2.3,11.5,5.5,14.5,9c1.8,2.1,2.8,5,3.2,8.3c0.5,3.5,0.7,7.8,0.7,13h-3.2c-2-9.2-5.9-16.3-11.4-20.9
		c-5.7-4.6-13.1-6.9-22.7-6.9c-8.5,0-15.8,2.3-21.5,6.7c-5.7,4.4-9.9,10.3-12.6,17.6c-2.7,7.3-4.1,14.9-4.1,23.4
		c0,17.9,3.5,30.9,10.5,38.9c6.9,8,16.1,12.1,27.7,12.1c5.3,0,9.9-0.5,13.8-1.4c3.7-0.9,7.5-2.3,10.8-4.1v-27.7
		c0-3.5,0.5-6.7,1.8-9.4c1.2-2.7,3.7-4.8,7.5-6.6c3.9-1.8,9.6-2.7,16.9-2.7v3.2c-4.8,0-8,1.2-9.6,3.7s-2.3,6.2-2.3,11.4v29.8
		c-5.7,3.5-11.7,6-17.9,7.6s-13.3,2.3-20.9,2.3C2248.3,363.2,2239.1,360.7,2231,355.7z"/>
	
		<linearGradient id="SVGID_00000083059067721693232700000009116524221734094983_" gradientUnits="userSpaceOnUse" x1="2369.1504" y1="2700.2" x2="2369.1504" y2="2806.8999" gradientTransform="matrix(1 0 0 -1 0 3062)">
		<stop  offset="0" style="stop-color:#FFFFFF;stop-opacity:0"/>
		<stop  offset="0.5335" style="stop-color:#FFFFFF"/>
		<stop  offset="1" style="stop-color:#FFFFFF"/>
	</linearGradient>
	<path style="fill:url(#SVGID_00000083059067721693232700000009116524221734094983_);" d="M2392,356.6c-4.3-3.4-8.9-9.4-13.8-18.1
		l-15.8-27h-11.2V360h-14.4v-85.7c0-5.3-0.7-9.4-2.3-12.1c-1.4-2.7-4.4-3.9-8.9-3.9h-3.2v-3.2h41.3c10.1,0,19.2,2,27.3,6
		c8.2,3.9,12.2,11.5,12.2,22.7c0,14-8.5,23.1-25.4,27l16.7,27.9c3.9,6.6,7.5,11.2,10.6,13.7c3.2,2.7,6.7,4.1,10.8,4.6v3.2
		c-0.9,0.4-2.3,0.7-4.1,1.1s-3.5,0.5-5.5,0.5C2401.1,361.7,2396.3,360,2392,356.6z M2373.8,303.7c3.9-1.6,7.1-4.1,9.8-7.5
		s4.1-7.5,4.1-12.4c0-5.1-1.4-9.6-4.1-13c-2.7-3.4-6-6-9.8-7.6c-3.9-1.6-7.5-2.5-10.6-2.5c-3.7,0-7.6,0.5-11.9,1.6v42
		c4.3,1.1,8.2,1.6,11.9,1.6C2366.3,306,2369.9,305.3,2373.8,303.7z"/>
	
		<linearGradient id="SVGID_00000160175251199925267010000007797819124982141580_" gradientUnits="userSpaceOnUse" x1="2451" y1="2701.8" x2="2451" y2="2806.8" gradientTransform="matrix(1 0 0 -1 0 3062)">
		<stop  offset="0" style="stop-color:#FFFFFF;stop-opacity:0"/>
		<stop  offset="0.5335" style="stop-color:#FFFFFF"/>
		<stop  offset="1" style="stop-color:#FFFFFF"/>
	</linearGradient>
	<path style="fill:url(#SVGID_00000160175251199925267010000007797819124982141580_);" d="M2442.1,358.5c-2-1.1-3.4-2.8-4.3-5.5
		c-0.9-2.7-1.2-6.7-1.2-12.1v-85.7h14.4V341c0,5.3,0.7,9.4,2.3,12.1c1.4,2.7,4.4,3.9,8.9,3.9h3.2v3.2H2451
		C2447,360.1,2444,359.6,2442.1,358.5z"/>
	
		<linearGradient id="SVGID_00000114065087134503473930000005679978598420637614_" gradientUnits="userSpaceOnUse" x1="2527.8999" y1="2698.7" x2="2527.8999" y2="2809.8" gradientTransform="matrix(1 0 0 -1 0 3062)">
		<stop  offset="0" style="stop-color:#FFFFFF;stop-opacity:0"/>
		<stop  offset="0.5335" style="stop-color:#FFFFFF"/>
		<stop  offset="1" style="stop-color:#FFFFFF"/>
	</linearGradient>
	<path style="fill:url(#SVGID_00000114065087134503473930000005679978598420637614_);" d="M2504.7,356.1
		c-7.5-4.8-13.1-11.2-17.2-19.5c-4.1-8.2-6-17.4-6-27.3c0-10.3,2.1-19.9,6.6-28.7c4.4-8.9,10.3-15.8,17.9-20.8
		c7.6-5.1,15.8-7.6,24.7-7.6c8.5,0,16,1.2,22.4,3.5c6.4,2.3,11.2,5.5,14.2,9c1.8,2.3,2.8,5.1,3.4,8.9c0.4,3.7,0.7,8.7,0.7,15.1h-3.2
		c-2-10.3-5.7-17.9-11.2-22.7c-5.5-4.8-12.6-7.5-21.5-7.5c-11.4,0-20.6,4.1-27.7,12.1c-6.9,8-10.5,20.9-10.5,38.7
		c0,8.3,1.4,16.1,4.1,23.4c2.7,7.3,6.9,13.1,12.6,17.6c5.7,4.4,12.8,6.7,21.5,6.7c7.8,0,14.5-1.8,20.2-5.5s11-9.2,15.4-16.7l3.2,2.3
		c-4.8,9.6-10.8,16.3-18.1,20.2c-7.1,3.9-15.6,6-25.7,6C2520.8,363.2,2512.1,360.9,2504.7,356.1z"/>
	
		<linearGradient id="SVGID_00000099639012668884742520000014964287875944782523_" gradientUnits="userSpaceOnUse" x1="2637.1499" y1="2700.5662" x2="2637.1499" y2="2807" gradientTransform="matrix(1 0 0 -1 0 3062)">
		<stop  offset="0" style="stop-color:#FFFFFF;stop-opacity:0"/>
		<stop  offset="0.5335" style="stop-color:#FFFFFF"/>
		<stop  offset="1" style="stop-color:#FFFFFF"/>
	</linearGradient>
	<path style="fill:url(#SVGID_00000099639012668884742520000014964287875944782523_);" d="M2620,356.4c-5.9-3.4-10.1-8.5-12.6-15.3
		c-2.5-6.7-3.7-15.6-3.7-26.4v-40.4c0-5.3-0.7-9.4-2.3-12.1c-1.4-2.7-4.4-3.9-8.9-3.9h-3.2v-3.2h14.4c3.9,0,6.9,0.5,8.9,1.6
		c2,1.1,3.4,2.8,4.3,5.5c0.9,2.7,1.2,6.7,1.2,12.1v45.2c0,11.7,2.1,20.6,6.6,26.6c4.3,6,11.5,9,21.6,9c8,0,14.4-1.4,19.2-4.3
		c4.8-2.8,8-7.3,10.1-13c2-5.9,3-13.5,3-23.2V255h6.4v59.6c0,11-1.2,19.9-3.5,26.6s-6.4,11.7-12.2,15.1c-5.9,3.4-14.2,5.1-24.7,5.1
		C2634,361.7,2626,360,2620,356.4z"/>
	
		<linearGradient id="SVGID_00000065786957507730772300000015622988694264289424_" gradientUnits="userSpaceOnUse" x1="2750" y1="2701.8" x2="2750" y2="2806.7" gradientTransform="matrix(1 0 0 -1 0 3062)">
		<stop  offset="0" style="stop-color:#FFFFFF;stop-opacity:0"/>
		<stop  offset="0.5335" style="stop-color:#FFFFFF"/>
		<stop  offset="1" style="stop-color:#FFFFFF"/>
	</linearGradient>
	<path style="fill:url(#SVGID_00000065786957507730772300000015622988694264289424_);" d="M2719.5,262.4c-1.4-2.7-4.4-3.9-8.9-3.9
		h-3.2v-3.2h14.4c3.9,0,6.9,0.5,8.9,1.6c2,1.1,3.4,2.8,4.3,5.5c0.9,2.7,1.2,6.7,1.2,12.1v79.3h56.4v6.4H2722v-85.7
		C2721.8,269,2721.1,264.9,2719.5,262.4z"/>
	
		<linearGradient id="SVGID_00000016796253876719649860000017735205039659959210_" gradientUnits="userSpaceOnUse" x1="2829.1501" y1="2701.8" x2="2829.1501" y2="2806.7" gradientTransform="matrix(1 0 0 -1 0 3062)">
		<stop  offset="0" style="stop-color:#FFFFFF;stop-opacity:0"/>
		<stop  offset="0.5335" style="stop-color:#FFFFFF"/>
		<stop  offset="1" style="stop-color:#FFFFFF"/>
	</linearGradient>
	<path style="fill:url(#SVGID_00000016796253876719649860000017735205039659959210_);" d="M2808.6,261.7c-13.3,0-19.9,6-19.9,18.3
		h-3.2v-11.9c0-8.5,4.4-12.8,13.5-12.8h73.8v6.4h-35.7v98.5h-14.4v-98.5H2808.6L2808.6,261.7z"/>
	
		<linearGradient id="SVGID_00000104667126296482367860000007468927237472697732_" gradientUnits="userSpaceOnUse" x1="2931.8499" y1="2700.5662" x2="2931.8499" y2="2807" gradientTransform="matrix(1 0 0 -1 0 3062)">
		<stop  offset="0" style="stop-color:#FFFFFF;stop-opacity:0"/>
		<stop  offset="0.5335" style="stop-color:#FFFFFF"/>
		<stop  offset="1" style="stop-color:#FFFFFF"/>
	</linearGradient>
	<path style="fill:url(#SVGID_00000104667126296482367860000007468927237472697732_);" d="M2914.7,356.4
		c-5.9-3.4-10.1-8.5-12.6-15.3c-2.5-6.7-3.7-15.6-3.7-26.4v-40.4c0-5.3-0.7-9.4-2.3-12.1c-1.4-2.7-4.4-3.9-8.9-3.9h-3.2v-3.2h14.4
		c3.9,0,6.9,0.5,8.9,1.6c2,1.1,3.4,2.8,4.3,5.5c0.9,2.7,1.2,6.7,1.2,12.1v45.2c0,11.7,2.1,20.6,6.6,26.6c4.3,6,11.5,9,21.6,9
		c8,0,14.4-1.4,19.2-4.3c4.8-2.8,8-7.3,10.1-13c2-5.9,3-13.5,3-23.2V255h6.4v59.6c0,11-1.2,19.9-3.5,26.6s-6.4,11.7-12.2,15.1
		c-5.9,3.4-14.2,5.1-24.7,5.1C2928.7,361.7,2920.7,360,2914.7,356.4z"/>
	
		<linearGradient id="SVGID_00000009565211649752591700000016909761844479478437_" gradientUnits="userSpaceOnUse" x1="3048.8501" y1="2700.2" x2="3048.8501" y2="2806.8999" gradientTransform="matrix(1 0 0 -1 0 3062)">
		<stop  offset="0" style="stop-color:#FFFFFF;stop-opacity:0"/>
		<stop  offset="0.5335" style="stop-color:#FFFFFF"/>
		<stop  offset="1" style="stop-color:#FFFFFF"/>
	</linearGradient>
	<path style="fill:url(#SVGID_00000009565211649752591700000016909761844479478437_);" d="M3071.7,356.6c-4.3-3.4-8.9-9.4-13.8-18.1
		l-15.8-27h-11.2V360h-14.4v-85.7c0-5.3-0.7-9.4-2.3-12.1c-1.4-2.7-4.4-3.9-8.9-3.9h-3.2v-3.2h41.3c10.1,0,19.2,2,27.3,6
		c8.2,3.9,12.2,11.5,12.2,22.7c0,14-8.5,23.1-25.4,27l16.7,27.9c3.9,6.6,7.5,11.2,10.6,13.7c3.2,2.7,6.7,4.1,10.8,4.6v3.2
		c-0.9,0.4-2.3,0.7-4.1,1.1s-3.5,0.5-5.5,0.5C3080.7,361.7,3075.8,360,3071.7,356.6z M3053.4,303.7c3.9-1.6,7.1-4.1,9.8-7.5
		s4.1-7.5,4.1-12.4c0-5.1-1.4-9.6-4.1-13c-2.7-3.4-6-6-9.8-7.6c-3.9-1.6-7.5-2.5-10.6-2.5c-3.7,0-7.6,0.5-11.9,1.6v42
		c4.3,1.1,8.2,1.6,11.9,1.6C3046,306,3049.5,305.3,3053.4,303.7z"/>
	
		<linearGradient id="SVGID_00000003807599338730509160000010280276276834864023_" gradientUnits="userSpaceOnUse" x1="3147.8" y1="2701.8" x2="3147.8" y2="2806.7" gradientTransform="matrix(1 0 0 -1 0 3062)">
		<stop  offset="0" style="stop-color:#FFFFFF;stop-opacity:0"/>
		<stop  offset="0.5335" style="stop-color:#FFFFFF"/>
		<stop  offset="1" style="stop-color:#FFFFFF"/>
	</linearGradient>
	<path style="fill:url(#SVGID_00000003807599338730509160000010280276276834864023_);" d="M3116.6,262.4c-1.4-2.7-4.4-3.9-8.9-3.9
		h-3.2v-3.2h67.6c9,0,13.5,4.3,13.5,12.8V280h-3.2c0-12.2-6.6-18.3-19.9-18.3H3133V303h42.9v6.4H3133v44.4h27.9
		c7.3,0,13-1.2,17.2-3.9c4.1-2.7,7.5-7.1,9.8-13.5l3.2,0.7l-5.5,15.1c-2,5.3-5.9,8-11.9,8h-54.8v-85.7
		C3118.9,269,3118.2,264.9,3116.6,262.4z"/>
	
		<linearGradient id="SVGID_00000102532688476636507510000014799752605760298114_" gradientUnits="userSpaceOnUse" x1="3305.5999" y1="2702.0811" x2="3305.5999" y2="2807.7" gradientTransform="matrix(1 0 0 -1 0 3062)">
		<stop  offset="0" style="stop-color:#FFFFFF;stop-opacity:0"/>
		<stop  offset="0.5335" style="stop-color:#FFFFFF"/>
		<stop  offset="1" style="stop-color:#FFFFFF"/>
	</linearGradient>
	<path style="fill:url(#SVGID_00000102532688476636507510000014799752605760298114_);" d="M3335,356.2c-5-2.5-8.9-7.8-11.9-16
		l-3.9-11.2h-44.5l-12.8,30.9h-7.1l44.5-105.6h4.8L3339,340c2.7,6.2,5.1,10.3,7.5,12.6c2.3,2.3,5.7,3.5,9.9,4.1v3.2
		c-2,0-4.1,0-6.4,0C3344.9,360.1,3339.9,358.7,3335,356.2z M3315.8,322.7l-19-45.9l-19.9,45.9H3315.8z"/>
	
		<linearGradient id="SVGID_00000034050849100296363040000010317095290919539601_" gradientUnits="userSpaceOnUse" x1="3409.1501" y1="2700.2" x2="3409.1501" y2="2806.8999" gradientTransform="matrix(1 0 0 -1 0 3062)">
		<stop  offset="0" style="stop-color:#FFFFFF;stop-opacity:0"/>
		<stop  offset="0.5335" style="stop-color:#FFFFFF"/>
		<stop  offset="1" style="stop-color:#FFFFFF"/>
	</linearGradient>
	<path style="fill:url(#SVGID_00000034050849100296363040000010317095290919539601_);" d="M3432,356.6c-4.3-3.4-8.9-9.4-13.8-18.1
		l-15.8-27h-11.2V360h-14.4v-85.7c0-5.3-0.7-9.4-2.3-12.1c-1.4-2.7-4.4-3.9-8.9-3.9h-3.2v-3.2h41.3c10.1,0,19.2,2,27.3,6
		c8.2,3.9,12.2,11.5,12.2,22.7c0,14-8.5,23.1-25.4,27l16.7,27.9c3.9,6.6,7.5,11.2,10.6,13.7c3.2,2.7,6.7,4.1,10.8,4.6v3.2
		c-0.9,0.4-2.3,0.7-4.1,1.1s-3.5,0.5-5.5,0.5C3441.1,361.7,3436.1,360,3432,356.6z M3413.7,303.7c3.9-1.6,7.1-4.1,9.8-7.5
		s4.1-7.5,4.1-12.4c0-5.1-1.4-9.6-4.1-13c-2.7-3.4-6-6-9.8-7.6c-3.9-1.6-7.5-2.5-10.6-2.5c-3.7,0-7.6,0.5-11.9,1.6v42
		c4.3,1.1,8.2,1.6,11.9,1.6C3406.3,306,3409.8,305.3,3413.7,303.7z"/>
	
		<linearGradient id="SVGID_00000178894987652292428490000015537822991196307878_" gradientUnits="userSpaceOnUse" x1="3508.1001" y1="2701.8" x2="3508.1001" y2="2806.7" gradientTransform="matrix(1 0 0 -1 0 3062)">
		<stop  offset="0" style="stop-color:#FFFFFF;stop-opacity:0"/>
		<stop  offset="0.5335" style="stop-color:#FFFFFF"/>
		<stop  offset="1" style="stop-color:#FFFFFF"/>
	</linearGradient>
	<path style="fill:url(#SVGID_00000178894987652292428490000015537822991196307878_);" d="M3476.9,262.4c-1.4-2.7-4.4-3.9-8.9-3.9
		h-3.2v-3.2h67.6c9,0,13.5,4.3,13.5,12.8V280h-3.2c0-12.2-6.6-18.3-19.9-18.3h-29.5V303h42.9v6.4h-42.9v44.4h27.9
		c7.3,0,13-1.2,17.2-3.9c4.1-2.7,7.5-7.1,9.8-13.5l3.2,0.7l-5.5,15.1c-2,5.3-5.9,8-11.9,8h-54.8v-85.7
		C3479.2,269,3478.5,264.9,3476.9,262.4z"/>
	
		<linearGradient id="SVGID_00000114047550058497369240000009613524811043043212_" gradientUnits="userSpaceOnUse" x1="3618.2" y1="2702.0811" x2="3618.2" y2="2807.7" gradientTransform="matrix(1 0 0 -1 0 3062)">
		<stop  offset="0" style="stop-color:#FFFFFF;stop-opacity:0"/>
		<stop  offset="0.5335" style="stop-color:#FFFFFF"/>
		<stop  offset="1" style="stop-color:#FFFFFF"/>
	</linearGradient>
	<path style="fill:url(#SVGID_00000114047550058497369240000009613524811043043212_);" d="M3647.6,356.2c-5-2.5-8.9-7.8-11.9-16
		l-3.9-11.2h-44.5l-12.8,30.9h-7.1l44.5-105.6h4.8l34.9,85.7c2.7,6.2,5.1,10.3,7.5,12.6c2.3,2.3,5.7,3.5,9.9,4.1v3.2
		c-2,0-4.1,0-6.4,0C3657.7,360.1,3652.5,358.7,3647.6,356.2z M3628.6,322.7l-19-45.9l-19.9,45.9H3628.6z"/>
</g>
</svg>
